<?xml version="1.0" encoding="utf-8"?>
<!-- Generator: Adobe Illustrator 27.5.0, SVG Export Plug-In . SVG Version: 6.00 Build 0)  -->
<svg version="1.1" xmlns="http://www.w3.org/2000/svg" xmlns:xlink="http://www.w3.org/1999/xlink" x="0px" y="0px"
	 viewBox="0 0 750 500" style="enable-background:new 0 0 750 500;" xml:space="preserve">
<g id="Background_Complete">
	<path style="fill:#F5F5F5;" d="M499.644,149.396c-2.927-2.958-7.904-3.616-11.499-1.52c0,0,6.395-12.244-4.179-23.012
		c-8.088-8.237-19.991-10.049-31.886-1.623c-4.399,3.116-6.065,7.483-6.065,7.483s-4.594-1.475-6.785-1.772
		c-4.68-0.634-9.632,1.563-12.303,5.458c-2.671,3.895-2.935,9.306-0.657,13.443c-2.72-0.894-5.97,0.234-7.551,2.621
		c-1.581,2.387-1.379,8.412,3.705,9.675l78.027-0.351C502.585,156.226,502.572,152.354,499.644,149.396z"/>
	<g>
		<path style="fill:#F5F5F5;" d="M704.802,249.335c-3.839-11.371-18.574-16.451-27.833-9.596
			c7.669-27.585-14.417-57.772-40.809-62.432c-26.392-4.66-53.153,11.385-69.477,34.194c-17.906-15.844-48.293-10.702-60.822,10.292
			c-16.915-13.534-42.487-12.625-58.537,2.08c0.099-37.046-25.01-72.501-58.217-82.203c-33.206-9.702-71.518,7.224-88.825,39.242
			c-26.453,0.721-50.977,23.382-55.654,51.424c-19.232-8.564-42.361-6.122-59.681,6.302c-5.307-28.625-32.116-50.684-59.163-48.682
			c-27.047,2.002-50.799,27.805-52.417,56.942c-3.473-1.668-7.204-2.363-10.931-2.234c-15.398,0.533-15.25,24.86-15.25,24.86
			l684.002,7.685C731.208,261.229,722.735,251.693,704.802,249.335z"/>
	</g>
	<path style="fill:#EBEBEB;" d="M406.763,85.396c-4.703-2.832-17.888-2.479-22.631,0.286c0,0,8.436-16.153-5.513-30.359
		c-10.671-10.867-26.373-13.257-42.066-2.141c-5.803,4.111-8.001,9.872-8.001,9.872s-6.06-1.946-8.951-2.337
		c-6.174-0.837-12.707,2.062-16.23,7.2c-3.523,5.138-3.872,12.277-0.867,17.735c-3.588-1.179-10.198,0.74-16.999,6.711
		c-2.838,2.492-6.469,9.511-6.469,9.511l136.546-0.464C415.581,94.122,411.929,88.507,406.763,85.396z"/>
	<path style="fill:#F5F5F5;" d="M686.854,103.258c-6.216-3.743-23.643-3.276-29.912,0.379c0,0,11.15-21.35-7.287-40.127
		c-14.104-14.363-34.858-17.522-55.6-2.83c-7.67,5.433-10.576,13.048-10.576,13.048s-8.01-2.572-11.831-3.089
		c-8.16-1.106-16.795,2.725-21.452,9.516c-4.657,6.792-5.119,16.227-1.146,23.44c-4.742-1.559-13.479,0.978-22.468,8.871
		c-3.751,3.293-8.551,12.571-8.551,12.571l180.478-0.613C698.509,114.791,693.682,107.369,686.854,103.258z"/>
	<path style="fill:#F5F5F5;" d="M219.532,116.409c-5.945-3.58-22.613-3.134-28.609,0.362c0,0,10.664-20.42-6.969-38.378
		c-13.489-13.737-33.339-16.758-53.177-2.706c-7.336,5.196-10.115,12.48-10.115,12.48s-7.661-2.46-11.316-2.955
		c-7.805-1.058-16.063,2.606-20.517,9.102c-4.454,6.496-4.895,15.52-1.096,22.419c-4.535-1.491-12.891,0.935-21.489,8.484
		c-3.588,3.15-8.178,12.023-8.178,12.023l172.613-0.586C230.679,127.44,226.062,120.341,219.532,116.409z"/>
	<path style="fill:#EBEBEB;" d="M544.782,169.671c0-7.568-6.135-13.703-13.703-13.703c-7.568,0-13.703,6.135-13.703,13.703
		c0,2.896,0.904,5.579,2.438,7.792l-0.008,0l0.095,0.116c0.364,0.514,0.764,0.999,1.194,1.457l8.28,10.104
		c1.231,1.502,3.551,1.428,4.684-0.149l8.129-11.32c0.103-0.143,0.211-0.282,0.308-0.429l0.052-0.072l-0.008,0
		C543.954,175.014,544.782,172.441,544.782,169.671z M531.079,176.404c-3.719,0-6.734-3.015-6.734-6.734
		c0-3.719,3.015-6.734,6.734-6.734c3.719,0,6.734,3.015,6.734,6.734C537.813,173.389,534.798,176.404,531.079,176.404z"/>
	<path style="fill:#EBEBEB;" d="M285.88,149.56c0-7.568-6.135-13.703-13.703-13.703c-7.568,0-13.703,6.135-13.703,13.703
		c0,2.896,0.904,5.579,2.438,7.792l-0.008,0l0.095,0.116c0.364,0.514,0.764,0.999,1.194,1.457l8.28,10.104
		c1.231,1.502,3.551,1.428,4.684-0.149l8.129-11.32c0.103-0.143,0.211-0.282,0.308-0.429l0.052-0.072l-0.008,0
		C285.051,154.903,285.88,152.33,285.88,149.56z M272.177,156.294c-3.719,0-6.734-3.015-6.734-6.734
		c0-3.719,3.015-6.734,6.734-6.734c3.719,0,6.734,3.015,6.734,6.734C278.911,153.279,275.896,156.294,272.177,156.294z"/>
</g>
<g id="Background_Simple" style="display:none;">
	<path style="display:inline;fill:#F5F5F5;" d="M256.045,119.941l1.068-3.49c9-29.42,33.07-51.887,63.033-57.507
		c3.852-0.722,7.757-1.167,11.683-1.315c28.269-1.066,56.745,13.289,73.006,36.802c9.563,13.828,15.615,31.009,29.484,40.392
		c18.05,12.212,42.022,6.655,62.822,0.68c20.8-5.975,44.804-11.474,62.801,0.817c11.271,7.698,17.634,21.098,20.299,34.561
		c7.057,35.645-9.468,73.312-36.668,96.853c-27.2,23.541-63.54,34.255-99.396,36.036c-50.229,2.495-102.386-12.424-140.07-46.349
		S245.383,169.587,256.045,119.941z"/>
	
		<ellipse transform="matrix(0.7071 -0.7071 0.7071 0.7071 45.3158 528.9316)" style="display:inline;fill:#F5F5F5;" cx="661.135" cy="209.765" rx="35.272" ry="35.272"/>
	
		<ellipse transform="matrix(0.233 -0.9725 0.9725 0.233 46.8752 235.5547)" style="display:inline;fill:#F5F5F5;" cx="172.768" cy="88.061" rx="35.272" ry="35.272"/>
</g>
<g id="Mountain">
	<g>
		<g>
			<g>
				<polygon style="fill:#6F4439;" points="518.38,236.714 479.377,187.133 436.292,128.703 400.88,96.242 392.027,105.095 
					387.896,105.095 330.646,185.952 271.569,231.169 135.653,319.308 661.135,323.727 555.942,243.952 				"/>
				<g>
					<path style="fill:#AE7461;" d="M134.509,315.986l287.987,2.171l28.907-35.986l11.621-27.226l-23.906,13.945l9.297-11.953
						l1.66-9.629l12.949-21.913l-20.585,12.285l-38.847,9.96l39.843-40.441l-15.937,6.243l-32.538,25.234l-23.574,11.953
						l-22.578,21.249l18.925-29.882l9.629-12.949l-21.25,2.988l2.988-5.644l-8.964,2.656l21.913-21.848l18.593-28.952l5.976-7.969
						l-0.664-3.32l-19.921,5.644l17.597-21.249l7.545-20.917h-6.217l-12.617,7.968l18.833-22.577l2.748-8.301
						c0,0-1.82-6.441-3.188-11.14l-8.708,8.708h-4.131l-57.249,80.857l-59.078,45.216l-116.87,61.872"/>
				</g>
			</g>
			<path style="fill:#455A64;" d="M96.512,324.112l40.213-21.35l42.392-17.324l122.04-46.132
				c-54.463,36.682-107.781,65.004-69.621,61.774l85.077-24.921l-25.292,25.909c-3.071,3.146-0.273,8.376,4.048,7.568l51.713-12.869
				l74.471-21.682l-60.63,39.107l84.099-24.078l-17.877,22.879l206.425,10.733H414.563"/>
			<polygon style="fill:#455A64;" points="189.066,265.009 190.609,273.125 189.066,273.514 190.609,274.015 192.151,281.909 
				190.223,282.298 192.151,282.965 193.18,288.135 183.925,288.135 186.688,276.572 188.167,276.183 186.881,275.849 			"/>
			<polygon style="fill:#455A64;" points="201.505,257.355 203.047,265.471 201.505,265.86 203.047,266.36 204.59,274.254 
				202.662,274.643 204.59,275.31 205.618,280.48 196.363,280.48 199.127,268.918 200.605,268.528 199.32,268.195 			"/>
			<polygon style="fill:#455A64;" points="211.3,261.475 212.568,268.145 211.3,268.465 212.568,268.876 213.835,275.364 
				212.251,275.684 213.835,276.232 214.68,280.48 207.075,280.48 209.346,270.978 210.561,270.658 209.505,270.384 			"/>
			<polygon style="fill:#455A64;" points="281.914,263.07 282.716,267.287 281.914,267.489 282.716,267.749 283.517,271.85 
				282.515,272.052 283.517,272.399 284.051,275.085 279.243,275.085 280.679,269.077 281.447,268.875 280.779,268.702 			"/>
			<polygon style="fill:#455A64;" points="308.083,222.799 308.884,227.016 308.083,227.218 308.884,227.478 309.686,231.579 
				308.684,231.782 309.686,232.128 310.088,234.152 305.007,236.505 306.847,228.807 307.615,228.605 306.947,228.431 			"/>
			<polygon style="fill:#455A64;" points="302.152,233.252 302.953,237.469 302.152,237.671 302.953,237.931 303.755,242.033 
				302.753,242.235 303.755,242.581 304.157,244.606 299.076,246.959 300.916,239.26 301.684,239.058 301.016,238.884 			"/>
			<polygon style="fill:#455A64;" points="353.071,285.776 353.873,289.993 353.071,290.195 353.873,290.455 354.674,294.557 
				353.672,294.759 354.674,295.105 355.077,297.13 349.996,299.483 351.836,291.784 352.604,291.582 351.936,291.408 			"/>
			<polygon style="fill:#455A64;" points="292.053,231.937 292.855,236.154 292.053,236.356 292.855,236.616 293.656,240.717 
				292.654,240.919 293.656,241.266 294.19,243.952 289.382,243.952 290.818,237.944 291.586,237.742 290.918,237.569 			"/>
			<polygon style="fill:#455A64;" points="262.297,277.366 263.426,283.311 262.297,283.596 263.426,283.962 264.556,289.744 
				263.144,290.029 264.556,290.517 265.309,294.304 258.531,294.304 260.555,285.835 261.638,285.55 260.696,285.306 			"/>
			<polygon style="fill:#455A64;" points="289.805,278.099 290.607,282.316 289.805,282.519 290.607,282.779 291.408,286.88 
				290.406,287.082 291.408,287.429 291.942,290.115 287.134,290.115 288.57,284.107 289.338,283.905 288.67,283.732 			"/>
			<polygon style="fill:#455A64;" points="167.946,273.619 169.754,283.135 167.946,283.591 169.754,284.178 171.563,293.433 
				169.302,293.889 171.563,294.671 172.768,300.733 161.918,300.733 165.158,287.176 166.891,286.72 165.384,286.329 			"/>
			<polygon style="fill:#455A64;" points="143.401,282.741 144.943,290.857 143.401,291.247 144.943,291.747 146.486,299.641 
				144.557,300.03 146.486,300.697 147.514,305.867 138.259,305.867 141.023,294.304 142.501,293.915 141.216,293.581 			"/>
			<polygon style="fill:#455A64;" points="127.58,297.094 128.751,303.252 127.58,303.547 128.751,303.927 129.921,309.916 
				128.458,310.211 129.921,310.717 130.701,314.639 123.679,314.639 125.776,305.867 126.898,305.572 125.922,305.319 			"/>
			<polygon style="fill:#455A64;" points="106.643,292.063 108.784,303.329 106.643,303.869 108.784,304.564 110.925,315.522 
				108.249,316.062 110.925,316.988 112.353,324.164 99.506,324.164 103.342,308.113 105.394,307.573 103.61,307.11 			"/>
			<polygon style="fill:#455A64;" points="296.928,264.548 298.47,272.664 296.928,273.054 298.47,273.554 300.013,281.448 
				298.085,281.837 300.013,282.504 301.041,287.674 291.786,287.674 294.55,276.111 296.028,275.722 294.743,275.388 			"/>
			<polygon style="fill:#455A64;" points="368.076,274.272 369.619,282.388 368.076,282.778 369.619,283.278 371.161,291.172 
				369.233,291.561 371.161,292.228 372.189,297.398 362.935,297.398 365.698,285.835 367.177,285.446 365.891,285.112 			"/>
			<polygon style="fill:#455A64;" points="377.404,272.654 378.947,280.771 377.404,281.16 378.947,281.66 380.489,289.554 
				378.561,289.943 380.489,290.61 381.517,295.78 372.263,295.78 375.026,284.217 376.504,283.828 375.219,283.495 			"/>
			<polygon style="fill:#455A64;" points="315.01,217.952 316.09,223.634 315.01,223.906 316.09,224.257 317.17,229.783 
				315.82,230.056 317.17,230.523 317.794,232.683 311.41,236.213 313.345,226.047 314.38,225.775 313.48,225.541 			"/>
			<polygon style="fill:#455A64;" points="270.888,275.876 272.43,283.992 270.888,284.382 272.43,284.882 273.973,292.776 
				272.045,293.165 273.973,293.832 275.001,299.002 265.746,299.002 268.51,287.439 269.988,287.05 268.703,286.716 			"/>
			<polygon style="fill:#455A64;" points="136.076,291.23 137.343,297.9 136.076,298.22 137.343,298.631 138.611,305.119 
				137.026,305.438 138.611,305.987 139.456,310.235 131.85,310.235 134.121,300.733 135.336,300.413 134.28,300.139 			"/>
			<polygon style="fill:#455A64;" points="119.876,291.23 121.685,300.746 119.876,301.202 121.685,301.789 123.493,311.044 
				121.232,311.5 123.493,312.282 124.699,318.344 113.848,318.344 117.088,304.787 118.821,304.331 117.314,303.94 			"/>
		</g>
		<polygon style="fill:#455A64;" points="455.551,294.84 457.183,303.427 455.551,303.839 457.183,304.368 458.815,312.72 
			456.775,313.132 458.815,313.838 459.903,319.308 450.111,319.308 453.035,307.074 454.599,306.662 453.239,306.309 		"/>
		<polyline style="fill:#455A64;" points="546.517,314.671 547.605,320.141 537.813,320.141 540.737,307.907 542.301,307.496 
			540.941,307.143 543.253,295.674 544.885,304.261 543.253,304.672 544.885,305.202 546.517,313.554 		"/>
		<polygon style="fill:#455A64;" points="557.72,307.074 558.7,312.23 557.72,312.477 558.7,312.795 559.68,317.81 558.455,318.057 
			559.68,318.481 560.333,321.765 554.454,321.765 556.209,314.419 557.148,314.172 556.332,313.96 		"/>
		<polygon style="fill:#455A64;" points="572.65,296.806 574.368,305.842 572.65,306.276 574.368,306.833 576.085,315.622 
			573.938,316.055 576.085,316.798 577.23,322.554 566.926,322.554 570.003,309.68 571.649,309.247 570.217,308.875 		"/>
		<polygon style="fill:#455A64;" points="584.636,310.6 585.377,314.5 584.636,314.687 585.377,314.927 586.118,318.72 
			585.192,318.907 586.118,319.228 586.612,321.712 582.166,321.712 583.493,316.156 584.204,315.969 583.586,315.809 		"/>
		<polygon style="fill:#455A64;" points="471.661,304.785 472.387,308.602 471.661,308.785 472.387,309.02 473.112,312.732 
			472.205,312.915 473.112,313.229 473.595,315.66 469.243,315.66 470.543,310.223 471.238,310.04 470.634,309.883 		"/>
		<polygon style="fill:#455A64;" points="429.652,284.682 430.377,288.499 429.652,288.682 430.377,288.917 431.103,292.629 
			430.196,292.813 431.103,293.126 431.586,295.557 427.234,295.557 428.534,290.12 429.229,289.937 428.624,289.78 		"/>
	</g>
	<polygon style="opacity:0.8;fill:#FFFFFF;" points="400.88,96.242 392.027,105.095 387.896,105.095 370.24,130.032 
		370.148,130.168 352.688,154.822 363.924,144.646 369.468,142.061 379.962,129.784 378.18,139.685 390.061,145.031 
		390.152,154.822 393.631,151.354 401.176,130.437 407.089,122.26 410.654,122.26 410.654,116.716 418.772,119.092 425.687,118.981 
			"/>
	<path style="opacity:0.8;fill:#FFFFFF;" d="M375.87,148.468c-0.614,0.307-9.06,9.06-9.06,9.06l-4.453,11.21l13.513-13.916V148.468z
		"/>
</g>
<g id="Valley">
	<path style="fill:#455A64;" d="M675.523,323.727H112.385c0,0-107.395,23.004-83.096,49.539
		c37.355,40.793,345.132,13.074,316.728,21.948c-28.404,8.873-96.628,41.822-61.255,51.75
		c73.12,20.523,286.468,15.591,324.086-22.145c37.618-37.737-15.14-71.321-15.14-71.321S821.221,346.719,675.523,323.727z"/>
	<ellipse style="fill:#455A64;" cx="676.405" cy="371.054" rx="38.321" ry="10.916"/>
</g>
<g id="Floor">
	<g>
		<path style="fill:#263238;" d="M729.555,323.727c0,0.144-158.763,0.26-354.561,0.26c-195.867,0-354.595-0.117-354.595-0.26
			s158.729-0.26,354.595-0.26C570.792,323.466,729.555,323.583,729.555,323.727z"/>
	</g>
</g>
<g id="Trees">
	<g>
		<polyline style="fill:#455A64;" points="581.035,397.736 583.273,408.987 563.132,408.987 569.147,383.823 572.364,382.976 
			569.566,382.25 574.322,358.658 577.679,376.322 574.322,377.169 577.679,378.257 581.035,395.437 		"/>
		<polyline style="opacity:0.2;" points="581.035,397.736 583.273,408.987 563.132,408.987 569.147,383.823 572.364,382.976 
			569.566,382.25 574.322,358.658 577.679,376.322 574.322,377.169 577.679,378.257 581.035,395.437 		"/>
	</g>
	<g>
		<polyline style="fill:#455A64;" points="77.167,357.257 79.405,368.508 59.264,368.508 65.278,343.344 68.495,342.497 
			65.698,341.771 70.453,318.179 73.81,335.843 70.453,336.69 73.81,337.778 77.167,354.958 		"/>
		<polyline style="opacity:0.2;" points="77.167,357.257 79.405,368.508 59.264,368.508 65.278,343.344 68.495,342.497 
			65.698,341.771 70.453,318.179 73.81,335.843 70.453,336.69 73.81,337.778 77.167,354.958 		"/>
	</g>
	<g>
		<polyline style="fill:#455A64;" points="510.858,327.387 513.096,338.638 492.955,338.638 498.969,313.474 502.186,312.627 
			499.389,311.901 504.144,288.309 507.501,305.973 504.144,306.819 507.501,307.908 510.858,325.088 		"/>
		<polyline style="opacity:0.2;" points="510.858,327.387 513.096,338.638 492.955,338.638 498.969,313.474 502.186,312.627 
			499.389,311.901 504.144,288.309 507.501,305.973 504.144,306.819 507.501,307.908 510.858,325.088 		"/>
	</g>
	<g>
		<polyline style="fill:#455A64;" points="354.812,333.739 356.227,340.853 343.494,340.853 347.296,324.943 349.33,324.408 
			347.561,323.949 350.568,309.034 352.69,320.201 350.568,320.737 352.69,321.425 354.812,332.286 		"/>
		<polyline style="opacity:0.2;" points="354.812,333.739 356.227,340.853 343.494,340.853 347.296,324.943 349.33,324.408 
			347.561,323.949 350.568,309.034 352.69,320.201 350.568,320.737 352.69,321.425 354.812,332.286 		"/>
	</g>
	<g>
		<polyline style="fill:#455A64;" points="368.731,325.389 370.146,332.503 357.413,332.503 361.215,316.593 363.249,316.058 
			361.48,315.599 364.487,300.684 366.609,311.851 364.487,312.387 366.609,313.075 368.731,323.936 		"/>
		<polyline style="opacity:0.2;" points="368.731,325.389 370.146,332.503 357.413,332.503 361.215,316.593 363.249,316.058 
			361.48,315.599 364.487,300.684 366.609,311.851 364.487,312.387 366.609,313.075 368.731,323.936 		"/>
	</g>
	<g>
		<polyline style="fill:#455A64;" points="415.452,348.595 417.576,359.275 398.459,359.275 404.168,335.39 407.221,334.586 
			404.566,333.897 409.08,311.505 412.266,328.27 409.08,329.074 412.266,330.108 415.452,346.414 		"/>
		<polyline style="opacity:0.2;" points="415.452,348.595 417.576,359.275 398.459,359.275 404.168,335.39 407.221,334.586 
			404.566,333.897 409.08,311.505 412.266,328.27 409.08,329.074 412.266,330.108 415.452,346.414 		"/>
	</g>
	<g>
		<polyline style="fill:#455A64;" points="374.996,385.94 377.12,396.62 358.004,396.62 363.712,372.735 366.766,371.931 
			364.111,371.242 368.624,348.85 371.81,365.615 368.624,366.419 371.81,367.453 374.996,383.758 		"/>
		<polyline style="opacity:0.2;" points="374.996,385.94 377.12,396.62 358.004,396.62 363.712,372.735 366.766,371.931 
			364.111,371.242 368.624,348.85 371.81,365.615 368.624,366.419 371.81,367.453 374.996,383.758 		"/>
	</g>
	<g>
		<polyline style="fill:#455A64;" points="282.12,367.88 283.363,374.129 272.177,374.129 275.517,360.152 277.304,359.682 
			275.75,359.279 278.392,346.176 280.256,355.986 278.392,356.457 280.256,357.061 282.12,366.603 		"/>
		<polyline style="opacity:0.2;" points="282.12,367.88 283.363,374.129 272.177,374.129 275.517,360.152 277.304,359.682 
			275.75,359.279 278.392,346.176 280.256,355.986 278.392,356.457 280.256,357.061 282.12,366.603 		"/>
	</g>
	<g>
		<polyline style="fill:#455A64;" points="347.844,376.236 349.087,382.485 337.901,382.485 341.241,368.508 343.028,368.038 
			341.474,367.634 344.115,354.531 345.98,364.342 344.115,364.812 345.98,365.417 347.844,374.959 		"/>
		<polyline style="opacity:0.2;" points="347.844,376.236 349.087,382.485 337.901,382.485 341.241,368.508 343.028,368.038 
			341.474,367.634 344.115,354.531 345.98,364.342 344.115,364.812 345.98,365.417 347.844,374.959 		"/>
	</g>
	<g>
		<polyline style="fill:#455A64;" points="261.383,368.54 261.883,371.054 257.384,371.054 258.728,365.432 259.446,365.243 
			258.821,365.081 259.884,359.811 260.633,363.757 259.884,363.946 260.633,364.189 261.383,368.027 		"/>
		<polyline style="opacity:0.2;" points="261.383,368.54 261.883,371.054 257.384,371.054 258.728,365.432 259.446,365.243 
			258.821,365.081 259.884,359.811 260.633,363.757 259.884,363.946 260.633,364.189 261.383,368.027 		"/>
	</g>
	<g>
		<polyline style="fill:#455A64;" points="394.938,348.091 395.438,350.605 390.939,350.605 392.282,344.983 393.001,344.794 
			392.376,344.632 393.438,339.362 394.188,343.307 393.438,343.497 394.188,343.74 394.938,347.578 		"/>
		<polyline style="opacity:0.2;" points="394.938,348.091 395.438,350.605 390.939,350.605 392.282,344.983 393.001,344.794 
			392.376,344.632 393.438,339.362 394.188,343.307 393.438,343.497 394.188,343.74 394.938,347.578 		"/>
	</g>
	<g>
		<polyline style="fill:#455A64;" points="510.26,354.388 510.76,356.901 506.261,356.901 507.604,351.28 508.323,351.091 
			507.698,350.928 508.76,345.658 509.51,349.604 508.76,349.793 509.51,350.037 510.26,353.874 		"/>
		<polyline style="opacity:0.2;" points="510.26,354.388 510.76,356.901 506.261,356.901 507.604,351.28 508.323,351.091 
			507.698,350.928 508.76,345.658 509.51,349.604 508.76,349.793 509.51,350.037 510.26,353.874 		"/>
	</g>
	<g>
		<polyline style="fill:#455A64;" points="559.53,390.955 560.649,396.581 550.578,396.581 553.586,383.999 555.194,383.576 
			553.795,383.212 556.173,371.417 557.852,380.248 556.173,380.672 557.852,381.216 559.53,389.806 		"/>
		<polyline style="opacity:0.2;" points="559.53,390.955 560.649,396.581 550.578,396.581 553.586,383.999 555.194,383.576 
			553.795,383.212 556.173,371.417 557.852,380.248 556.173,380.672 557.852,381.216 559.53,389.806 		"/>
	</g>
	<g>
		<polyline style="fill:#455A64;" points="92.666,367.109 93.785,372.735 83.715,372.735 86.722,360.152 88.331,359.729 
			86.932,359.366 89.31,347.57 90.988,356.402 89.31,356.825 90.988,357.37 92.666,365.96 		"/>
		<polyline style="opacity:0.2;" points="92.666,367.109 93.785,372.735 83.715,372.735 86.722,360.152 88.331,359.729 
			86.932,359.366 89.31,347.57 90.988,356.402 89.31,356.825 90.988,357.37 92.666,365.96 		"/>
	</g>
	<g>
		<polyline style="fill:#455A64;" points="526.983,342.458 528.102,348.084 518.031,348.084 521.038,335.502 522.647,335.078 
			521.248,334.715 523.626,322.919 525.304,331.751 523.626,332.175 525.304,332.719 526.983,341.309 		"/>
		<polyline style="opacity:0.2;" points="526.983,342.458 528.102,348.084 518.031,348.084 521.038,335.502 522.647,335.078 
			521.248,334.715 523.626,322.919 525.304,331.751 523.626,332.175 525.304,332.719 526.983,341.309 		"/>
	</g>
	<g>
		<polyline style="fill:#455A64;" points="385.716,334.14 386.835,339.766 376.765,339.766 379.772,327.183 381.38,326.76 
			379.982,326.397 382.359,314.601 384.038,323.433 382.359,323.856 384.038,324.401 385.716,332.991 		"/>
		<polyline style="opacity:0.2;" points="385.716,334.14 386.835,339.766 376.765,339.766 379.772,327.183 381.38,326.76 
			379.982,326.397 382.359,314.601 384.038,323.433 382.359,323.856 384.038,324.401 385.716,332.991 		"/>
	</g>
</g>
<g id="Trail">
	<g>
		<g>
			<g>
				<path style="fill:#263238;" d="M401.319,48.289c0,17.073,0,34.145,0,51.218c0,0.804,1.25,0.806,1.25,0
					c0-17.073,0-34.145,0-51.218C402.569,47.485,401.319,47.484,401.319,48.289L401.319,48.289z"/>
			</g>
			<path style="fill:#FF725E;" d="M401.156,53.011c0,0,12.544-4.131,17.341,1.035c4.796,5.165,2.029,11.622,9.777,9.962
				c7.748-1.66,9.52-1.864,13.836,3.319c0,0-6.457-0.92-10.515,5.167c-4.059,6.088-11.622,4.796-15.127,3.136
				c-3.505-1.66-2.398-5.896-15.311-1.468V53.011z"/>
		</g>
		<g>
			<path style="fill:#263238;" d="M400.341,96.557c7.927,14.87,15.855,29.739,23.783,44.609c1.447,2.714,2.894,5.429,4.341,8.143
				c0.078,0.146,0.24,0.645,0.387,0.727c0.309,0.171,0.156-0.424,0.017-0.404c-0.321,0.046-1.139,1.611-1.318,1.864
				c-5.392,7.627-10.784,15.253-16.176,22.88c-4.661,6.592-9.322,13.185-13.982,19.777c-0.206,0.291-0.033,0.676,0.224,0.855
				c8.034,5.575,16.067,11.149,24.101,16.724c12.802,8.883,25.604,17.767,38.406,26.65c2.935,2.036,5.87,4.073,8.805,6.11
				c0.05-0.381,0.1-0.762,0.149-1.142c-4.431,0.867-8.862,1.733-13.293,2.599c-10.211,1.997-20.422,3.993-30.633,5.99
				c-11.367,2.223-22.734,4.445-34.1,6.668c-7.899,1.544-15.798,3.089-23.697,4.633c-1.072,0.21-2.618,0.225-3.612,0.706
				c-1.038,0.503-1.918,2.153-2.629,3.016c-1.774,2.153-3.548,4.305-5.322,6.458c-1.538,1.866-3.075,3.731-4.613,5.597
				c-0.289,0.351-0.56,0.759-0.887,1.076c0.144-0.14,0.375-0.21,0.069-0.07c-1.497,0.687-3.089,1.218-4.62,1.822
				c-7.708,3.04-15.416,6.079-23.124,9.119c-10.754,4.241-21.508,8.482-32.262,12.722c-10.051,3.964-20.103,7.927-30.154,11.891
				c-5.599,2.208-11.198,4.416-16.798,6.624c-0.265,0.104-0.53,0.209-0.795,0.314c-0.547,0.216-0.637,1.023,0,1.205
				c2.052,0.588,4.104,1.175,6.157,1.763c5.586,1.6,11.172,3.199,16.758,4.799c8.309,2.38,16.618,4.759,24.928,7.139
				c10.092,2.89,20.183,5.78,30.275,8.67c11.053,3.165,22.105,6.331,33.158,9.496c11.158,3.195,22.315,6.391,33.473,9.586
				c10.406,2.98,20.813,5.96,31.219,8.941c8.837,2.531,17.674,5.061,26.51,7.592c6.321,1.81,12.643,3.621,18.964,5.431
				c1.968,0.564,3.936,1.127,5.903,1.691c0.944,0.27,2.104,0.828,3.089,0.885c0.124,0.007,0.268,0.077,0.389,0.112
				c0-0.402,0-0.804,0-1.205c-2.16,0.458-4.32,0.915-6.48,1.373c-5.88,1.246-11.759,2.492-17.639,3.738
				c-8.744,1.853-17.489,3.706-26.233,5.559c-10.622,2.251-21.245,4.502-31.867,6.753c-11.634,2.465-23.269,4.931-34.903,7.396
				c-11.745,2.489-23.491,4.978-35.236,7.467c-11.004,2.332-22.008,4.664-33.012,6.996c-9.254,1.961-18.508,3.922-27.763,5.883
				c-6.658,1.411-13.316,2.822-19.973,4.233c-3.135,0.664-6.395,1.139-9.481,2.009c-0.135,0.038-0.277,0.059-0.414,0.088
				c-0.786,0.167-0.454,1.372,0.332,1.205c2.16-0.458,4.32-0.915,6.48-1.373c5.88-1.246,11.759-2.492,17.639-3.738
				c8.745-1.853,17.489-3.706,26.233-5.559c10.622-2.251,21.245-4.502,31.867-6.753c11.634-2.465,23.269-4.931,34.903-7.396
				c11.745-2.489,23.491-4.978,35.236-7.467c11.004-2.332,22.008-4.664,33.012-6.995c9.254-1.961,18.508-3.922,27.763-5.883
				c6.658-1.411,13.316-2.822,19.973-4.233c3.135-0.664,6.395-1.139,9.481-2.009c0.135-0.038,0.277-0.059,0.414-0.088
				c0.622-0.132,0.568-1.043,0-1.205c-2.052-0.588-4.104-1.176-6.157-1.763c-5.586-1.6-11.172-3.199-16.758-4.799
				c-8.309-2.38-16.618-4.759-24.927-7.139c-10.092-2.89-20.183-5.78-30.275-8.67c-11.053-3.165-22.105-6.331-33.158-9.496
				c-11.158-3.195-22.315-6.391-33.473-9.586c-10.406-2.98-20.813-5.96-31.219-8.941c-8.837-2.531-17.674-5.061-26.51-7.592
				c-6.321-1.81-12.643-3.621-18.964-5.431c-1.968-0.564-3.936-1.127-5.903-1.691c-0.944-0.27-2.104-0.827-3.089-0.885
				c-0.124-0.007-0.268-0.077-0.389-0.111c0,0.402,0,0.804,0,1.205c3.935-1.552,7.871-3.104,11.806-4.655
				c9.307-3.67,18.613-7.34,27.92-11.01c10.929-4.31,21.858-8.619,32.786-12.929c8.802-3.471,17.604-6.942,26.406-10.413
				c2.432-0.959,4.864-1.918,7.295-2.877c1.192-0.47,1.869-0.673,2.69-1.669c3.268-3.965,6.536-7.93,9.804-11.896
				c0.64-0.776,1.279-1.552,1.919-2.328c0.146-0.177,0.887-1.014,0.646-0.87c-0.293,0.176,0.673-0.081,0.839-0.113
				c6.343-1.24,12.686-2.48,19.028-3.721c10.944-2.14,21.889-4.28,32.833-6.42c10.922-2.136,21.844-4.271,32.766-6.407
				c6.276-1.227,12.552-2.454,18.828-3.681c0.301-0.059,0.603-0.118,0.904-0.177c0.572-0.112,0.553-0.862,0.149-1.142
				c-8.033-5.575-16.067-11.149-24.1-16.724c-12.802-8.884-25.604-17.767-38.406-26.65c-2.935-2.036-5.87-4.073-8.805-6.11
				c0.075,0.285,0.15,0.57,0.224,0.855c9.226-13.049,18.451-26.098,27.677-39.147c1.286-1.819,2.572-3.638,3.858-5.457
				c0.13-0.183,0.099-0.445,0-0.631c-3.225-6.05-6.451-12.1-9.676-18.15c-5.116-9.595-10.231-19.191-15.347-28.786
				c-1.188-2.229-2.376-4.457-3.565-6.686C401.042,95.216,399.962,95.847,400.341,96.557L400.341,96.557z"/>
		</g>
		<g>
			<circle style="opacity:0.2;fill:#FF725E;" cx="472.898" cy="389.22" r="7.792"/>
			<path style="fill:#FF725E;" d="M476.552,389.22c0,2.018-1.636,3.654-3.654,3.654c-2.018,0-3.655-1.636-3.655-3.654
				c0-2.018,1.636-3.654,3.655-3.654C474.916,385.565,476.552,387.202,476.552,389.22z"/>
		</g>
		<g>
			<circle style="opacity:0.2;fill:#FF725E;" cx="244.082" cy="322.378" r="7.792"/>
			<path style="fill:#FF725E;" d="M247.736,322.378c0,2.018-1.636,3.654-3.654,3.654c-2.018,0-3.655-1.636-3.655-3.654
				c0-2.018,1.636-3.654,3.655-3.654C246.1,318.724,247.736,320.36,247.736,322.378z"/>
		</g>
		<g>
			<circle style="opacity:0.2;fill:#FF725E;" cx="350.962" cy="280.511" r="7.792"/>
			<path style="fill:#FF725E;" d="M354.617,280.511c0,2.018-1.636,3.654-3.655,3.654s-3.654-1.636-3.654-3.654
				c0-2.018,1.636-3.654,3.654-3.654S354.617,278.493,354.617,280.511z"/>
		</g>
		<g>
			<circle style="opacity:0.2;fill:#FF725E;" cx="364.522" cy="264.469" r="7.792"/>
			<path style="fill:#FF725E;" d="M368.176,264.469c0,2.018-1.636,3.654-3.654,3.654c-2.018,0-3.654-1.636-3.654-3.654
				s1.636-3.655,3.654-3.655C366.54,260.814,368.176,262.451,368.176,264.469z"/>
		</g>
		<g>
			
				<ellipse transform="matrix(0.9246 -0.3809 0.3809 0.9246 -57.317 196.5826)" style="opacity:0.2;fill:#FF725E;" cx="468.029" cy="243.109" rx="7.792" ry="7.792"/>
			<path style="fill:#FF725E;" d="M471.683,243.109c0,2.018-1.636,3.654-3.654,3.654c-2.018,0-3.655-1.636-3.655-3.654
				c0-2.018,1.636-3.654,3.655-3.654C470.047,239.454,471.683,241.091,471.683,243.109z"/>
		</g>
		<g>
			<circle style="opacity:0.2;fill:#FF725E;" cx="397.933" cy="194.468" r="7.792"/>
			<circle style="fill:#FF725E;" cx="397.933" cy="194.468" r="3.655"/>
		</g>
		<g>
			<path style="opacity:0.2;fill:#FF725E;" d="M437.014,149.329c0,4.303-3.489,7.792-7.792,7.792c-4.304,0-7.792-3.489-7.792-7.792
				c0-4.304,3.489-7.792,7.792-7.792C433.525,141.537,437.014,145.026,437.014,149.329z"/>
			<path style="fill:#FF725E;" d="M432.876,149.329c0,2.018-1.636,3.654-3.654,3.654c-2.018,0-3.654-1.636-3.654-3.654
				c0-2.018,1.636-3.655,3.654-3.655C431.24,145.675,432.876,147.311,432.876,149.329z"/>
		</g>
		<g>
			<circle style="opacity:0.2;fill:#FF725E;" cx="401.698" cy="95.853" r="7.792"/>
			<path style="fill:#FF725E;" d="M405.352,95.853c0,2.018-1.636,3.654-3.654,3.654c-2.018,0-3.655-1.636-3.655-3.654
				c0-2.018,1.636-3.654,3.655-3.654C403.716,92.198,405.352,93.835,405.352,95.853z"/>
		</g>
		
			<ellipse transform="matrix(0.9343 -0.3565 0.3565 0.9343 -141.8696 111.7793)" style="opacity:0.2;fill:#FF725E;" cx="232.269" cy="440.714" rx="7.792" ry="7.792"/>
		<path style="fill:#FF725E;" d="M235.924,440.715c0,2.018-1.636,3.654-3.654,3.654s-3.654-1.636-3.654-3.654
			c0-2.018,1.636-3.655,3.654-3.655S235.924,438.696,235.924,440.715z"/>
	</g>
	<path style="fill:#FF725E;" d="M253.379,395.911c0-12.8-10.376-23.176-23.176-23.176c-12.8,0-23.176,10.376-23.176,23.176
		c0,4.899,1.529,9.436,4.123,13.178l-0.014,0l0.16,0.196c0.616,0.869,1.293,1.69,2.02,2.465l14.004,17.09
		c2.082,2.541,6.007,2.415,7.923-0.252l13.75-19.146c0.174-0.242,0.356-0.477,0.521-0.726l0.087-0.122l-0.014,0
		C251.978,404.949,253.379,400.596,253.379,395.911z M230.203,407.3c-6.29,0-11.389-5.099-11.389-11.389
		c0-6.29,5.099-11.389,11.389-11.389c6.29,0,11.389,5.099,11.389,11.389C241.592,402.201,236.493,407.3,230.203,407.3z"/>
</g>
<g id="Character_00000126310531408999629190000007292038617890500746_">
	<g>
		<g>
			<g>
				<g>
					<polygon style="fill:#E0E0E0;" points="155.326,211.607 181.017,223.004 198.023,218.587 215.338,218.587 226.778,205.689 
						244.093,200.899 248.113,223.004 200.497,258.654 182.563,293.81 158.137,293.81 139.908,267.526 					"/>
				</g>
			</g>
			<g style="opacity:0.2;">
				<g>
					<polygon points="215.338,218.587 194.026,252.571 165.414,293.81 143.742,293.759 181.017,223.004 198.023,218.587 					"/>
				</g>
			</g>
			<g>
				<g>
					<g>
						<path style="fill:#263238;" d="M149.811,282.405c-0.154-0.081,6.707-13.445,15.323-29.845
							c8.619-16.406,15.729-29.636,15.883-29.555c0.154,0.081-6.706,13.442-15.325,29.848
							C157.077,269.253,149.965,282.486,149.811,282.405z"/>
					</g>
				</g>
			</g>
			<g>
				<g>
					<g>
						<path style="fill:#263238;" d="M165.851,293.81c-0.009-0.006,0.04-0.101,0.146-0.281c0.128-0.209,0.286-0.469,0.482-0.789
							c0.463-0.727,1.1-1.729,1.907-2.997c1.717-2.626,4.153-6.35,7.152-10.935c3.047-4.598,6.689-10.065,10.832-16.071
							c2.092-2.992,4.237-6.156,6.729-9.284c2.808-2.747,5.607-5.796,8.536-8.805c11.674-12.102,22.24-23.056,29.93-31.027
							c3.825-3.921,6.932-7.107,9.122-9.352c1.06-1.067,1.896-1.909,2.503-2.521c0.269-0.262,0.487-0.474,0.662-0.645
							c0.152-0.143,0.233-0.212,0.241-0.205c0.008,0.007-0.058,0.092-0.195,0.249c-0.164,0.182-0.367,0.409-0.617,0.688
							c-0.586,0.631-1.394,1.501-2.418,2.603c-2.156,2.279-5.213,5.512-8.977,9.491c-7.655,8.004-18.174,19.003-29.796,31.155
							c-1.458,1.517-2.898,3.016-4.318,4.493c-0.71,0.738-1.415,1.471-2.114,2.199l-0.524,0.544l-0.261,0.271l-0.13,0.135
							l-0.033,0.034l-0.016,0.017c0.05,0.06-0.428-0.391-0.228-0.204c-0.083,0.16-0.018,0.195,0.039,0.296
							c-0.249,0.169-0.637,0.628-0.93,0.978c-2.461,3.075-4.629,6.247-6.727,9.221c-4.166,5.982-7.845,11.422-10.939,15.988
							c-3.068,4.537-5.56,8.224-7.317,10.822c-0.849,1.241-1.52,2.221-2.006,2.932c-0.217,0.306-0.392,0.554-0.534,0.754
							C165.928,293.733,165.86,293.816,165.851,293.81z"/>
					</g>
				</g>
			</g>
			<g style="opacity:0.2;">
				<g>
					<path d="M244.093,200.899l4.02,22.105l-47.616,35.649l-17.933,35.156l-7.278-0.047c0,0,29.832-50.107,29.905-50.249
						C205.263,243.372,244.093,200.899,244.093,200.899z"/>
				</g>
			</g>
		</g>
		<g>
			<g>
				<g>
					<path style="fill:#FFBF9D;" d="M127.638,149.516l0.844,0.005c8.49,0.054,15.515,6.617,16.144,15.084
						c0.585,7.875,1.13,16.582,1.051,20.805c-0.163,8.742-8.917,10.047-8.917,10.047l0.673,10.509l-21.215-0.792l-1.636-38.108
						C113.857,157.983,118.538,149.99,127.638,149.516z"/>
				</g>
				<g>
					<path style="fill:#FF9A6C;" d="M136.772,195.455c0,0-5.524,0.29-11.374-3.436c0,0,2.78,6.457,11.509,5.725L136.772,195.455z"/>
				</g>
				<g>
					<path style="fill:#263238;" d="M141.781,173.404c0.019,0.659-0.523,1.219-1.212,1.252c-0.687,0.032-1.261-0.474-1.28-1.134
						c-0.019-0.66,0.523-1.22,1.21-1.253C141.189,172.237,141.762,172.745,141.781,173.404z"/>
				</g>
				<g>
					<path style="fill:#263238;" d="M142.719,168.871c-0.156,0.162-1.097-0.544-2.441-0.549c-1.342-0.024-2.333,0.661-2.477,0.496
						c-0.071-0.074,0.088-0.367,0.52-0.676c0.425-0.309,1.147-0.607,1.984-0.598c0.837,0.01,1.539,0.323,1.942,0.641
						C142.658,168.503,142.796,168.799,142.719,168.871z"/>
				</g>
				<g>
					<path style="fill:#263238;" d="M130.104,173.671c0.019,0.66-0.524,1.219-1.212,1.252c-0.687,0.033-1.261-0.474-1.28-1.134
						c-0.019-0.659,0.524-1.22,1.211-1.253C129.511,172.503,130.085,173.011,130.104,173.671z"/>
				</g>
				<g>
					<path style="fill:#263238;" d="M129.511,169.038c-0.156,0.162-1.099-0.544-2.441-0.549c-1.342-0.024-2.332,0.661-2.477,0.495
						c-0.071-0.073,0.087-0.366,0.52-0.676c0.425-0.309,1.147-0.607,1.984-0.598c0.837,0.01,1.539,0.322,1.942,0.64
						C129.449,168.67,129.587,168.966,129.511,169.038z"/>
				</g>
				<g>
					<path style="fill:#263238;" d="M134.324,179.033c-0.006-0.077,0.83-0.216,2.185-0.38c0.343-0.033,0.668-0.099,0.728-0.333
						c0.082-0.247-0.059-0.618-0.223-1.018c-0.317-0.832-0.649-1.704-0.998-2.619c-1.386-3.729-2.386-6.793-2.236-6.848
						c0.151-0.054,1.396,2.923,2.781,6.652c0.334,0.919,0.652,1.796,0.955,2.634c0.127,0.391,0.348,0.835,0.169,1.348
						c-0.094,0.256-0.347,0.441-0.567,0.498c-0.22,0.066-0.413,0.068-0.583,0.077C135.174,179.108,134.329,179.109,134.324,179.033z
						"/>
				</g>
				<g>
					<path style="fill:#263238;" d="M130.709,163.876c-0.18,0.34-1.329-0.037-2.746-0.092c-1.416-0.087-2.612,0.173-2.74-0.182
						c-0.055-0.169,0.199-0.473,0.712-0.743c0.508-0.269,1.281-0.475,2.13-0.434c0.849,0.043,1.585,0.324,2.049,0.643
						C130.583,163.386,130.789,163.714,130.709,163.876z"/>
				</g>
				<g>
					<path style="fill:#263238;" d="M142.82,163.331c-0.285,0.303-1.392-0.021-2.725-0.044c-1.332-0.062-2.464,0.19-2.722-0.131
						c-0.113-0.156,0.067-0.461,0.562-0.746c0.488-0.285,1.303-0.515,2.219-0.486c0.916,0.03,1.708,0.312,2.17,0.627
						C142.792,162.868,142.945,163.183,142.82,163.331z"/>
				</g>
				<g>
					<path style="fill:#263238;" d="M143.81,160.59c0,0-2.271-5.49-4.904-6.784c-3.186-1.567-4.585,1.932-7.625,1.062
						c-3.041-0.871-6.082-2.374-9.21-0.039c-3.424,2.556-1.839,4.374-2.074,8.252c-0.953,15.722-3.853,20.152-4.623,12.738
						c-0.085-0.812-2.333-1.472-2.645-4.903c-0.405-4.449-0.541-9.85,0.471-12.999c0.854-2.655,2.381-4.483,5.114-6.491
						c4.313-3.171,10.21-3.202,14.212-2.774C136.527,149.08,144.219,153.737,143.81,160.59z"/>
				</g>
				<g>
					<path style="fill:#FFBF9D;" d="M115.933,175.585c-0.047-1.35-1.202-2.423-2.548-2.303c-1.632,0.145-3.452,1.059-3.366,4.429
						c0.153,5.978,6.124,4.591,6.13,4.42C116.154,182.014,116.02,178.086,115.933,175.585z"/>
				</g>
				<g>
					<path style="fill:#FF9A6C;" d="M114.791,179.914c-0.027-0.018-0.102,0.076-0.276,0.161c-0.169,0.083-0.463,0.145-0.778,0.036
						c-0.638-0.216-1.195-1.205-1.252-2.281c-0.029-0.544,0.072-1.065,0.254-1.499c0.171-0.442,0.446-0.755,0.763-0.819
						c0.315-0.081,0.545,0.103,0.622,0.27c0.085,0.165,0.05,0.285,0.082,0.295c0.017,0.015,0.126-0.104,0.071-0.349
						c-0.028-0.118-0.102-0.257-0.245-0.368c-0.146-0.113-0.359-0.167-0.58-0.137c-0.46,0.044-0.864,0.479-1.064,0.955
						c-0.225,0.479-0.351,1.065-0.318,1.675c0.069,1.204,0.715,2.316,1.585,2.543c0.423,0.099,0.771-0.037,0.949-0.182
						C114.784,180.059,114.812,179.925,114.791,179.914z"/>
				</g>
				<g>
					<path style="fill:#263238;" d="M134.56,183.314c-0.032-0.223-1.504,0.075-2.807-0.971c-1.305-1.043-1.461-2.646-1.669-2.616
						c-0.097-0.002-0.215,0.408-0.097,1.074c0.111,0.654,0.513,1.56,1.31,2.2c0.798,0.637,1.72,0.793,2.334,0.72
						C134.259,183.652,134.59,183.413,134.56,183.314z"/>
				</g>
			</g>
			<g>
				<g>
					<path style="fill:#263238;" d="M156.058,154.771c0,0-0.738,6.242-11.544,8.797l-2.068-5.879L156.058,154.771z"/>
				</g>
				<g>
					<g>
						<g>
							<g>
								<g>
									<g>
										<g>
											<g>
												<g>
													<g>
														<g>
															<g>
																<g>
																	<g>
																		<g>
																			<g>
																				<g>
																					<path style="fill:#455A64;" d="M144.075,159.497c0,0-1.421-1.653-4.953-2.547
																						c-6.56-1.66-15.723-1.974-25.129,8.199l-1.551,2.592c0,0-0.213-5.17,0.219-7.641
																						c0.289-1.65,0.813-11.648,13.048-13.896C124.991,146.336,141.976,144.141,144.075,159.497z"/>
																				</g>
																			</g>
																		</g>
																	</g>
																</g>
															</g>
														</g>
													</g>
												</g>
											</g>
										</g>
									</g>
								</g>
							</g>
						</g>
					</g>
				</g>
				<g>
					<path style="fill:#455A64;" d="M143.124,154.443c-9.715-0.668-19.015,0.944-25.897,7.44c4.914-2.27,12.039-3.46,17.421-2.881
						c5.382,0.579,10.884,1.42,16.151,0.169c2.374-0.564,4.986-1.975,5.259-4.4L143.124,154.443z"/>
				</g>
				<g>
					<g>
						<path style="fill:#263238;" d="M116.299,160.832c0.014,0.022,0.371-0.162,1.003-0.513c0.313-0.181,0.702-0.391,1.163-0.617
							c0.457-0.233,0.973-0.506,1.564-0.766c1.161-0.564,2.594-1.125,4.196-1.706c1.615-0.549,3.415-1.079,5.334-1.518
							c3.845-0.862,7.412-1.178,9.993-1.241c0.645-0.031,1.229-0.019,1.743-0.021c0.514-0.007,0.956,0.003,1.317,0.017
							c0.723,0.019,1.124,0.017,1.126-0.009c0.002-0.026-0.396-0.073-1.119-0.137c-0.361-0.036-0.804-0.068-1.32-0.081
							c-0.515-0.018-1.102-0.049-1.751-0.034c-2.595-0.005-6.195,0.271-10.071,1.14c-1.934,0.442-3.746,0.987-5.367,1.558
							c-1.609,0.604-3.041,1.195-4.196,1.793c-0.588,0.277-1.099,0.568-1.549,0.82c-0.454,0.245-0.835,0.474-1.137,0.676
							C116.616,160.584,116.285,160.81,116.299,160.832z"/>
					</g>
				</g>
			</g>
		</g>
		<g>
			<g>
				<g>
					<g>
						<g>
							<g>
								<g>
									<g>
										<g>
											<g>
												<g>
													<g>
														<g>
															<g>
																<g>
																	<g>
																		<g>
																			<g>
																				<g>
																					<path style="fill:#455A64;" d="M132.824,423.457l-0.892,19.256c0,0,20.441,7.323,20.644,10.896l-39.627-0.291
																						l0.085-30.057L132.824,423.457z"/>
																				</g>
																			</g>
																		</g>
																	</g>
																</g>
															</g>
														</g>
													</g>
												</g>
											</g>
										</g>
									</g>
								</g>
							</g>
							<g>
								<g>
									<g>
										<g>
											<g>
												<g>
													<g>
														<g>
															<g>
																<g>
																	<g>
																		<g>
																			<g>
																				<g>
																					<path style="fill:#263238;" d="M112.949,453.318l0.134-3.029l37.943,1.412c0,0,1.758,0.737,1.549,1.908
																						L112.949,453.318z"/>
																				</g>
																			</g>
																		</g>
																	</g>
																</g>
															</g>
														</g>
													</g>
												</g>
											</g>
										</g>
									</g>
								</g>
							</g>
							<g>
								<g>
									<g>
										<g>
											<g>
												<g>
													<g>
														<g>
															<g>
																<g>
																	<g>
																		<g>
																			<g>
																				<g>
																					<g>
																						<path style="fill:#263238;" d="M132.576,442.527c-0.008,0.182-0.976,0.258-1.933,0.838
																							c-0.973,0.557-1.47,1.344-1.648,1.27c-0.178-0.037,0.12-1.126,1.291-1.81
																							C131.451,442.134,132.619,442.36,132.576,442.527z"/>
																					</g>
																				</g>
																			</g>
																		</g>
																	</g>
																</g>
															</g>
														</g>
													</g>
												</g>
											</g>
										</g>
									</g>
								</g>
							</g>
							<g>
								<g>
									<g>
										<g>
											<g>
												<g>
													<g>
														<g>
															<g>
																<g>
																	<g>
																		<g>
																			<g>
																				<g>
																					<g>
																						<path style="fill:#263238;" d="M136.719,444.18c0.043,0.177-0.798,0.482-1.461,1.249
																							c-0.688,0.749-0.86,1.583-1.053,1.574c-0.182,0.027-0.307-1.043,0.537-1.982
																							C135.577,444.074,136.716,444.006,136.719,444.18z"/>
																					</g>
																				</g>
																			</g>
																		</g>
																	</g>
																</g>
															</g>
														</g>
													</g>
												</g>
											</g>
										</g>
									</g>
								</g>
							</g>
							<g>
								<g>
									<g>
										<g>
											<g>
												<g>
													<g>
														<g>
															<g>
																<g>
																	<g>
																		<g>
																			<g>
																				<g>
																					<g>
																						<path style="fill:#263238;" d="M139.04,448.892c-0.176,0.038-0.438-0.877,0.067-1.873
																							c0.498-1,1.413-1.388,1.494-1.235c0.108,0.151-0.484,0.683-0.885,1.507
																							C139.295,448.106,139.233,448.875,139.04,448.892z"/>
																					</g>
																				</g>
																			</g>
																		</g>
																	</g>
																</g>
															</g>
														</g>
													</g>
												</g>
											</g>
										</g>
									</g>
								</g>
							</g>
							<g>
								<g>
									<g>
										<g>
											<g>
												<g>
													<g>
														<g>
															<g>
																<g>
																	<g>
																		<g>
																			<g>
																				<g>
																					<g>
																						<path style="fill:#263238;" d="M132.263,438.118c-0.083,0.166-0.968-0.093-2.063-0.031
																							c-1.096,0.041-1.949,0.382-2.049,0.224c-0.111-0.133,0.726-0.803,2.016-0.859
																							C131.456,437.387,132.359,437.975,132.263,438.118z"/>
																					</g>
																				</g>
																			</g>
																		</g>
																	</g>
																</g>
															</g>
														</g>
													</g>
												</g>
											</g>
										</g>
									</g>
								</g>
							</g>
						</g>
					</g>
					<g>
						<g>
							<g>
								<g>
									<g>
										<g>
											<path style="fill:#263238;" d="M132.771,437.9c0.099,0.004,0.114,1.784,0.054,4.637l-0.158-0.228
												c2.314,0.83,5.392,1.948,8.662,3.403c3.579,1.58,6.734,3.229,8.781,4.772c1.026,0.761,1.782,1.485,2.172,2.088
												c0.413,0.6,0.358,1.059,0.293,1.037c-0.03-0.005-0.059-0.375-0.506-0.899c-0.428-0.525-1.204-1.175-2.243-1.874
												c-2.068-1.418-5.223-2.989-8.78-4.558c-3.248-1.445-6.292-2.615-8.563-3.532l-0.168-0.068l0.01-0.16
												C132.507,439.67,132.671,437.896,132.771,437.9z"/>
										</g>
									</g>
								</g>
							</g>
						</g>
					</g>
				</g>
				<g>
					<g>
						<g>
							<g>
								<g>
									<g>
										<g>
											<g>
												<g>
													<g>
														<g>
															<g>
																<path style="fill:#263238;" d="M107.406,291.929v17.451l7.295,55.729c0,0-2.313,26.135-3.732,40.887
																	c-1.233,12.812,0.783,35.124,0.783,35.124h21.628l7.738-74.411l4.803-46.407l8.712-27.49L107.406,291.929z"/>
															</g>
														</g>
													</g>
												</g>
											</g>
										</g>
									</g>
								</g>
							</g>
						</g>
					</g>
					<g>
						<g>
							<g>
								<g>
									<g>
										<g>
											<g>
												<g>
													<g>
														<g>
															<g>
																<g>
																	<g>
																		<g>
																			<g>
																				<g>
																					<g>
																						<path style="fill:#455A64;" d="M145.749,422.862l-5.665,18.518c0,0,18.044,11.653,17.35,15.171l-38.443-9.076
																							l7.572-29.196L145.749,422.862z"/>
																					</g>
																				</g>
																			</g>
																		</g>
																	</g>
																</g>
															</g>
														</g>
													</g>
												</g>
											</g>
										</g>
									</g>
								</g>
								<g>
									<g>
										<g>
											<g>
												<g>
													<g>
														<g>
															<g>
																<g>
																	<g>
																		<g>
																			<g>
																				<g>
																					<g>
																						<path style="fill:#263238;" d="M118.991,447.477l0.885-2.914l36.528,9.791c0,0,1.525,1.107,1.03,2.199
																							L118.991,447.477z"/>
																					</g>
																				</g>
																			</g>
																		</g>
																	</g>
																</g>
															</g>
														</g>
													</g>
												</g>
											</g>
										</g>
									</g>
								</g>
								<g>
									<g>
										<g>
											<g>
												<g>
													<g>
														<g>
															<g>
																<g>
																	<g>
																		<g>
																			<g>
																				<g>
																					<g>
																						<g>
																							<path style="fill:#263238;" d="M140.756,441.343c-0.053,0.176-1.013,0.035-2.088,0.386
																								c-1.084,0.325-1.764,0.98-1.918,0.869c-0.164-0.075,0.397-1.068,1.706-1.472
																								C139.761,440.711,140.84,441.19,140.756,441.343z"/>
																						</g>
																					</g>
																				</g>
																			</g>
																		</g>
																	</g>
																</g>
															</g>
														</g>
													</g>
												</g>
											</g>
										</g>
									</g>
								</g>
								<g>
									<g>
										<g>
											<g>
												<g>
													<g>
														<g>
															<g>
																<g>
																	<g>
																		<g>
																			<g>
																				<g>
																					<g>
																						<g>
																							<path style="fill:#263238;" d="M144.371,443.869c-0.003,0.182-0.895,0.291-1.732,0.89
																								c-0.855,0.575-1.23,1.348-1.415,1.296c-0.184-0.014-0.039-1.082,1.016-1.808
																								C143.288,443.512,144.412,443.699,144.371,443.869z"/>
																						</g>
																					</g>
																				</g>
																			</g>
																		</g>
																	</g>
																</g>
															</g>
														</g>
													</g>
												</g>
											</g>
										</g>
									</g>
								</g>
								<g>
									<g>
										<g>
											<g>
												<g>
													<g>
														<g>
															<g>
																<g>
																	<g>
																		<g>
																			<g>
																				<g>
																					<g>
																						<g>
																							<path style="fill:#263238;" d="M145.454,448.963c-0.18-0.002-0.207-0.949,0.532-1.806
																								c0.733-0.861,1.719-1.035,1.76-0.869c0.068,0.171-0.64,0.556-1.236,1.269
																								C145.897,448.256,145.645,448.99,145.454,448.963z"/>
																						</g>
																					</g>
																				</g>
																			</g>
																		</g>
																	</g>
																</g>
															</g>
														</g>
													</g>
												</g>
											</g>
										</g>
									</g>
								</g>
								<g>
									<g>
										<g>
											<g>
												<g>
													<g>
														<g>
															<g>
																<g>
																	<g>
																		<g>
																			<g>
																				<g>
																					<g>
																						<g>
																							<path style="fill:#263238;" d="M141.551,436.988c-0.121,0.143-0.918-0.305-1.997-0.487
																								c-1.075-0.203-1.99-0.062-2.047-0.237c-0.075-0.154,0.905-0.619,2.173-0.387
																								C140.949,436.099,141.68,436.87,141.551,436.988z"/>
																						</g>
																					</g>
																				</g>
																			</g>
																		</g>
																	</g>
																</g>
															</g>
														</g>
													</g>
												</g>
											</g>
										</g>
									</g>
								</g>
							</g>
						</g>
					</g>
					<g>
						<g>
							<g>
								<g>
									<g>
										<g>
											<g>
												<g>
													<g>
														<g>
															<g>
																<polygon style="fill:#263238;" points="162.986,293.119 163.979,302.611 162.78,371.532 145.663,426.897 
																	141.516,440.324 119.423,436.398 136.452,293.139 																"/>
															</g>
														</g>
													</g>
												</g>
											</g>
										</g>
									</g>
								</g>
							</g>
						</g>
					</g>
				</g>
			</g>
			<g>
				<g>
					<g>
						<g>
							<path style="fill:#455A64;" d="M162.318,372.976c0,0-0.023,0.112-0.084,0.327c-0.066,0.226-0.158,0.543-0.279,0.957
								c-0.256,0.854-0.629,2.096-1.113,3.708c-0.989,3.247-2.428,7.967-4.241,13.919c-3.663,11.921-8.838,28.761-14.899,48.488
								l-0.049,0.16l-0.173-0.031c-6.984-1.238-14.409-2.554-22.095-3.916l-0.202-0.036l0.038-0.191
								c1.127-5.618,2.305-11.489,3.506-17.475c3.569-17.729,6.934-34.451,9.876-49.062l-0.001,0.06
								c-3.659-21.674-6.576-38.958-8.252-48.882l0.01,0.026c-1.607-2.758-2.845-4.885-3.69-6.335
								c-0.41-0.714-0.724-1.259-0.941-1.638c-0.209-0.369-0.306-0.562-0.306-0.562s0.123,0.179,0.345,0.542
								c0.226,0.374,0.552,0.913,0.979,1.618c0.861,1.441,2.124,3.556,3.761,6.297l0.007,0.012l0.003,0.014
								c1.715,9.917,4.702,27.191,8.449,48.852l0.005,0.03l-0.006,0.03c-2.927,14.613-6.278,31.338-9.83,49.07
								c-1.203,5.985-2.383,11.856-3.512,17.474l-0.164-0.226c7.684,1.37,15.108,2.692,22.091,3.937l-0.222,0.129
								c6.12-19.712,11.345-36.538,15.044-48.449c1.859-5.938,3.334-10.649,4.348-13.889c0.509-1.604,0.902-2.841,1.172-3.691
								c0.134-0.41,0.237-0.724,0.31-0.948C162.274,373.082,162.318,372.976,162.318,372.976z"/>
						</g>
					</g>
				</g>
			</g>
			<g>
				<g>
					<polygon style="fill:#263238;" points="140.311,329.746 140.311,335.575 161.268,335.214 159.989,329.425 					"/>
					<g>
						<path style="fill:#455A64;" d="M140.311,329.746c-0.022-0.021,0.479-0.05,1.423-0.088c1.026-0.035,2.396-0.081,4.079-0.138
							c3.495-0.106,8.454-0.24,14.172-0.347l0.206-0.004l0.045,0.202c0.409,1.84,0.842,3.784,1.287,5.786l0.069,0.311l-0.319,0.006
							c-0.186,0.003-0.387,0.007-0.589,0.01c-8.278,0.143-15.658,0.232-20.37,0.253l-0.169,0.001l0.003-0.164
							c0.037-1.803,0.067-3.259,0.089-4.343C140.267,330.24,140.289,329.724,140.311,329.746c0.011,0.011,0.022,0.156,0.034,0.423
							c0.011,0.317,0.024,0.698,0.04,1.159c0.022,1.059,0.052,2.483,0.089,4.247l-0.165-0.163c4.71-0.141,12.089-0.306,20.367-0.448
							c0.202-0.004,0.403-0.007,0.589-0.01l-0.25,0.316c-0.44-2.003-0.867-3.949-1.271-5.79l0.25,0.198
							c-5.613,0.078-10.493,0.104-14.004,0.112c-1.707-0.002-3.097-0.003-4.138-0.004c-0.447-0.006-0.818-0.01-1.128-0.014
							C140.463,329.765,140.322,329.756,140.311,329.746z"/>
					</g>
				</g>
				<g>
					<path style="fill:#263238;" d="M141.367,335.575c0,0-0.453,12.639,0.907,14.132c1.36,1.493,18.182,1.764,18.308,0
						c0.126-1.764-0.643-14.132-0.643-14.132"/>
					<g>
						<path style="fill:#455A64;" d="M159.939,335.575c0.018-0.001,0.046,0.162,0.082,0.475c0.036,0.373,0.079,0.825,0.131,1.369
							c0.102,1.189,0.23,2.911,0.366,5.041c0.062,1.074,0.128,2.239,0.2,3.486c0.027,0.629,0.056,1.278,0.085,1.945
							c0.008,0.336,0.017,0.676,0.026,1.021c0.001,0.174,0.007,0.346,0,0.528l-0.007,0.271c-0.024,0.123-0.088,0.314-0.178,0.373
							c-0.352,0.326-0.715,0.407-1.076,0.517c-0.362,0.098-0.728,0.165-1.098,0.227c-0.74,0.116-1.497,0.186-2.267,0.241
							c-1.541,0.107-3.136,0.136-4.769,0.114c-1.634-0.023-3.228-0.098-4.765-0.241c-0.768-0.073-1.523-0.16-2.26-0.285
							c-0.739-0.149-1.452-0.234-2.166-0.669c-0.345-0.302-0.459-0.701-0.555-1.032c-0.117-0.347-0.144-0.686-0.218-1.022
							c-0.096-0.671-0.162-1.322-0.205-1.951c-0.083-1.258-0.12-2.43-0.127-3.498c-0.022-2.137,0.032-3.865,0.083-5.058
							c0.027-0.596,0.055-1.059,0.081-1.373c0.026-0.314,0.049-0.478,0.067-0.477c0.018,0.001,0.03,0.166,0.038,0.48
							c0.005,0.375,0.01,0.828,0.017,1.374c0.011,1.192,0.013,2.918,0.082,5.046c0.031,1.064,0.089,2.229,0.189,3.472
							c0.052,0.622,0.126,1.261,0.227,1.912c0.074,0.315,0.107,0.658,0.216,0.962c0.088,0.318,0.208,0.622,0.395,0.784
							c0.496,0.301,1.259,0.438,1.958,0.56c0.72,0.117,1.465,0.199,2.224,0.268c1.52,0.135,3.104,0.205,4.726,0.229
							c1.621,0.022,3.206-0.003,4.728-0.102c0.76-0.05,1.507-0.116,2.226-0.224c0.358-0.057,0.712-0.12,1.048-0.208
							c0.327-0.083,0.68-0.21,0.846-0.367c0.062-0.046,0.024-0.048,0.058-0.084l0.009-0.253c0.009-0.166,0.005-0.34,0.005-0.51
							c-0.005-0.341-0.009-0.679-0.014-1.011c-0.02-0.666-0.04-1.313-0.059-1.94c-0.049-1.246-0.094-2.411-0.136-3.485
							c-0.082-2.069-0.15-3.774-0.2-5.048c-0.013-0.546-0.024-0.999-0.033-1.374C159.914,335.741,159.921,335.576,159.939,335.575z"
							/>
					</g>
				</g>
			</g>
			<g>
				<g>
					<polygon style="fill:#263238;" points="140.338,388.887 139.022,392.266 151.255,396.789 151.82,393.144 					"/>
					<g>
						<path style="fill:#455A64;" d="M140.338,388.887c-0.012-0.028,0.28,0.059,0.833,0.24c0.65,0.22,1.447,0.491,2.395,0.812
							c2.055,0.709,4.981,1.737,8.341,2.969l0.193,0.071l-0.031,0.205c-0.177,1.161-0.364,2.385-0.557,3.646l-0.048,0.315
							l-0.299-0.111c-0.109-0.04-0.226-0.084-0.344-0.127c-4.832-1.786-9.126-3.415-11.855-4.487l-0.157-0.062l0.062-0.15
							c0.45-1.094,0.821-1.941,1.07-2.503C140.192,389.142,140.326,388.859,140.338,388.887c0.012,0.028-0.096,0.367-0.296,0.961
							c-0.201,0.594-0.488,1.437-0.869,2.478l-0.095-0.211c2.77,0.961,7.091,2.518,11.923,4.304
							c0.118,0.043,0.235,0.087,0.344,0.127l-0.347,0.204c0.198-1.26,0.391-2.484,0.573-3.644l0.161,0.275
							c-3.251-1.22-6.066-2.321-8.099-3.127c-0.95-0.382-1.748-0.703-2.399-0.965C140.667,389.054,140.35,388.914,140.338,388.887z"
							/>
					</g>
				</g>
				<g>
					<path style="fill:#263238;" d="M139.634,392.505c0,0-3.117,7.226-2.665,8.399c0.451,1.172,10.144,5.128,10.615,4.134
						c0.472-0.994,2.818-8.339,2.818-8.339"/>
					<g>
						<path style="fill:#455A64;" d="M150.403,396.698c0.034,0.011-0.058,0.413-0.256,1.129c-0.199,0.716-0.503,1.747-0.897,3.016
							c-0.205,0.645-0.426,1.336-0.66,2.071c-0.125,0.373-0.254,0.756-0.386,1.15c-0.071,0.198-0.142,0.398-0.214,0.601l-0.12,0.309
							l-0.066,0.159c-0.046,0.082-0.157,0.205-0.228,0.219c-0.322,0.126-0.549,0.083-0.791,0.068
							c-0.237-0.025-0.467-0.069-0.699-0.117c-0.46-0.1-0.916-0.23-1.377-0.372c-0.921-0.286-1.855-0.629-2.799-1.012
							c-0.944-0.383-1.853-0.788-2.714-1.221c-0.43-0.217-0.849-0.44-1.251-0.681c-0.4-0.261-0.789-0.458-1.134-0.91
							c-0.15-0.288-0.119-0.562-0.1-0.778c0.012-0.236,0.074-0.438,0.108-0.653c0.098-0.414,0.209-0.808,0.328-1.183
							c0.24-0.75,0.487-1.437,0.729-2.057c0.479-1.243,0.91-2.229,1.22-2.905c0.311-0.675,0.506-1.039,0.539-1.025
							c0.033,0.014-0.098,0.404-0.352,1.102c-0.288,0.802-0.643,1.789-1.062,2.954c-0.218,0.625-0.443,1.313-0.661,2.056
							c-0.108,0.372-0.208,0.757-0.294,1.154c-0.065,0.371-0.158,0.868-0.047,1.085c0.19,0.248,0.607,0.512,0.98,0.734
							c0.388,0.228,0.8,0.442,1.224,0.652c0.849,0.419,1.75,0.816,2.682,1.195c0.933,0.378,1.855,0.721,2.756,1.008
							c0.45,0.143,0.896,0.273,1.333,0.373c0.41,0.095,0.931,0.181,1.167,0.105c0.012-0.001,0.024-0.008,0.013-0.002
							c0.005,0.01,0.013,0.019,0.023,0.027l0.018,0.011l0.01,0.004c0.015,0.008-0.108-0.053-0.055-0.029l0.002-0.004l0.061-0.141
							l0.118-0.291c0.075-0.198,0.149-0.394,0.222-0.587c0.14-0.388,0.276-0.767,0.408-1.135c0.255-0.726,0.495-1.41,0.719-2.047
							c0.416-1.169,0.768-2.158,1.053-2.962C150.211,397.068,150.368,396.687,150.403,396.698z"/>
					</g>
				</g>
			</g>
		</g>
		<g>
			<g>
				<g>
					<g>
						<path style="fill:#FFBF9D;" d="M97.02,244.041c0,0-2.492,15.606-0.824,21.782c1.668,6.176,15.237,21.782,15.237,21.782
							l18.515-11.3l-12.195-29.517L97.02,244.041z"/>
					</g>
				</g>
			</g>
			<g>
				<g>
					<g>
						<g>
							<path style="fill:#FFFFFF;" d="M114.15,205.305c0,0,10.631,0.15,10.785,13.059c0.154,12.909-2.706,30.177-2.706,30.177
								l-27.136-4.659c0,0,3.366-24.032,6.24-30.953C104.226,205.964,109.75,204.132,114.15,205.305z"/>
							<g>
								<path style="fill:#263238;" d="M114.15,205.305c-0.001,0.082-1.259-0.424-3.586-0.175c-1.151,0.141-2.553,0.544-3.97,1.418
									c-1.425,0.859-2.782,2.261-3.898,4.055c-1.113,1.811-1.847,4.048-2.48,6.501c-0.639,2.454-1.21,5.125-1.758,7.964
									c-1.096,5.68-2.138,12.038-3.114,18.848l-0.208-0.285c4.499,0.77,9.253,1.584,14.142,2.421
									c4.466,0.769,8.821,1.519,12.994,2.237l-0.294,0.209c1.097-6.931,1.87-13.477,2.33-19.377
									c0.227-2.951,0.37-5.743,0.426-8.343c0.061-2.603-0.034-5.008-0.613-7.106c-0.558-2.098-1.583-3.827-2.78-5.043
									c-1.196-1.227-2.51-1.951-3.609-2.41c-1.108-0.457-2.019-0.659-2.635-0.775c-0.289-0.042-0.522-0.076-0.706-0.103
									C114.232,205.321,114.148,205.314,114.15,205.305c0.002-0.007,0.083-0.016,0.244-0.008c0.162,0.001,0.401,0.025,0.716,0.059
									c0.626,0.087,1.553,0.263,2.688,0.7c1.125,0.44,2.48,1.154,3.726,2.393c1.246,1.228,2.322,2.995,2.914,5.134
									c0.615,2.135,0.73,4.602,0.688,7.202c-0.037,2.611-0.163,5.411-0.376,8.371c-0.431,5.92-1.182,12.472-2.27,19.427
									l-0.04,0.253l-0.255-0.044c-4.173-0.715-8.529-1.461-12.996-2.226c-4.887-0.842-9.641-1.66-14.139-2.435l-0.243-0.042
									l0.035-0.243c0.991-6.82,2.057-13.177,3.185-18.863c0.564-2.842,1.153-5.516,1.814-7.979
									c0.653-2.458,1.421-4.736,2.577-6.572c1.159-1.822,2.568-3.242,4.042-4.101c1.466-0.875,2.908-1.26,4.083-1.376
									c1.182-0.116,2.096,0.01,2.701,0.111c0.301,0.06,0.525,0.127,0.677,0.165C114.074,205.273,114.151,205.298,114.15,205.305z"
									/>
							</g>
						</g>
					</g>
				</g>
			</g>
			<g>
				<g>
					<g>
						<g>
							<path style="fill:#FFFFFF;" d="M114.483,195.824l0.358,2.921c0,0-10.487,8.708-11.307,11.117
								c-1.271,3.736,1.501,35.294,2.725,44.238c1.224,8.944,1.472,28.657,1.472,28.657c-0.89,2.321-1.902,4.416-2.237,7.655
								c-0.332,3.213,2.237,6.144,2.237,6.144c15.561,4.947,34.57,1.149,55.135-3.418l-0.193-5.679l-6.723-61.697
								c0,0,1.959-16.036-6.071-20.678c-0.882-0.51-7.886-4.387-7.886-4.387L114.483,195.824z"/>
							<g>
								<path style="fill:#263238;" d="M114.483,195.824c0,0,0.148,0.018,0.454,0.067c0.323,0.054,0.777,0.129,1.37,0.229
									c1.232,0.21,3.03,0.516,5.364,0.914c4.734,0.817,11.629,2.007,20.349,3.513l0.025,0.004l0.023,0.013
									c1.906,1.054,3.923,2.17,6.042,3.342c1.044,0.602,2.19,1.118,3.185,1.969c0.997,0.828,1.806,1.898,2.461,3.066
									c1.31,2.353,1.988,5.104,2.337,7.949c0.337,2.857,0.371,5.837,0.068,8.898l0-0.048c1.936,17.648,4.252,38.748,6.769,61.691
									l0.001,0.009l0,0.01c0.061,1.783,0.128,3.725,0.195,5.679l0.007,0.215l-0.21,0.047c-5.495,1.219-11.306,2.485-17.247,3.543
									c-6.533,1.175-13.041,2.011-19.45,2.18c-3.205,0.074-6.378-0.072-9.495-0.402c-3.112-0.389-6.15-1.026-9.074-1.916
									l-0.07-0.021l-0.043-0.053c-0.827-1.009-1.463-2.121-1.892-3.328c-0.207-0.604-0.349-1.232-0.407-1.871
									c-0.066-0.642,0.02-1.288,0.1-1.893c0.32-2.477,1.289-4.765,2.161-6.96l-0.016,0.09c-0.084-5.637-0.242-11.102-0.49-16.361
									c-0.124-2.629-0.275-5.207-0.484-7.726c-0.189-2.521-0.535-4.965-0.816-7.378c-1.07-9.636-1.755-18.402-2.228-26.079
									c-0.224-3.839-0.397-7.407-0.405-10.681c0.05-1.639-0.027-3.198,0.342-4.694c0.299-0.734,0.799-1.268,1.244-1.814
									c0.464-0.53,0.932-1.029,1.4-1.497c3.766-3.721,6.859-6.236,8.755-7.825l-0.019,0.046c-0.103-0.956-0.182-1.688-0.237-2.2
									C114.501,196.063,114.483,195.824,114.483,195.824s0.043,0.265,0.113,0.757c0.069,0.502,0.168,1.22,0.297,2.158l0.004,0.027
									l-0.022,0.02c-1.865,1.619-4.933,4.169-8.658,7.904c-0.463,0.469-0.924,0.968-1.379,1.495
									c-0.434,0.534-0.928,1.089-1.185,1.738c-0.337,1.396-0.264,2.994-0.301,4.611c0.026,3.263,0.216,6.827,0.456,10.662
									c0.505,7.667,1.219,16.431,2.312,26.051c0.285,2.397,0.64,4.862,0.835,7.391c0.214,2.526,0.371,5.108,0.501,7.741
									c0.258,5.266,0.426,10.732,0.518,16.377l0.001,0.047l-0.017,0.043c-0.881,2.224-1.816,4.444-2.125,6.856
									c-0.492,2.376,0.565,4.806,2.087,6.691l-0.113-0.074c2.891,0.876,5.898,1.505,8.982,1.888
									c3.09,0.325,6.239,0.468,9.424,0.393c6.37-0.171,12.852-1.004,19.371-2.177c5.928-1.056,11.733-2.319,17.226-3.535
									l-0.202,0.261c-0.066-1.954-0.132-3.896-0.192-5.679l0.001,0.019c-2.483-22.947-4.766-44.051-6.676-61.702l-0.002-0.022
									l0.003-0.027c0.306-3.008,0.281-5.98-0.043-8.8c-0.335-2.814-0.998-5.523-2.266-7.817c-0.633-1.139-1.412-2.176-2.368-2.976
									c-0.938-0.812-2.078-1.336-3.124-1.944c-2.112-1.181-4.122-2.305-6.022-3.368l0.047,0.017
									c-8.662-1.574-15.511-2.818-20.213-3.673c-2.346-0.431-4.153-0.764-5.392-0.991c-0.604-0.113-1.067-0.2-1.396-0.261
									C114.651,195.863,114.483,195.824,114.483,195.824z"/>
							</g>
						</g>
					</g>
				</g>
			</g>
			<g>
				<g>
					<g>
						<g>
							<path style="fill:#263238;" d="M103.25,217.008c0.014-0.001,0.035,0.128,0.063,0.374c0.028,0.291,0.061,0.646,0.102,1.076
								c0.074,0.996,0.173,2.336,0.294,3.964c0.222,3.403,0.521,8,0.852,13.08c0.343,5.108,0.703,9.727,1.014,13.067
								c0.155,1.624,0.283,2.96,0.378,3.954c0.038,0.43,0.07,0.785,0.097,1.076c0.017,0.247,0.02,0.377,0.006,0.379
								c-0.014,0.002-0.043-0.125-0.087-0.369c-0.047-0.289-0.103-0.641-0.172-1.068c-0.14-0.929-0.319-2.276-0.505-3.945
								c-0.384-3.336-0.789-7.958-1.133-13.069c-0.341-5.109-0.578-9.739-0.735-13.09c-0.068-1.631-0.125-2.972-0.166-3.97
								c-0.01-0.432-0.019-0.788-0.026-1.081C103.23,217.139,103.236,217.009,103.25,217.008z"/>
						</g>
					</g>
				</g>
			</g>
			<g>
				<g>
					<g>
						<g>
							<path style="fill:#263238;" d="M151.904,291.929c0.003,0.013-0.137,0.055-0.408,0.124c-0.315,0.074-0.708,0.168-1.187,0.281
								c-0.515,0.124-1.151,0.253-1.892,0.388c-0.74,0.142-1.583,0.3-2.521,0.437c-1.871,0.314-4.117,0.569-6.615,0.806
								c-2.501,0.204-5.257,0.354-8.154,0.389c-2.898,0.02-5.657-0.077-8.162-0.238c-2.502-0.198-4.753-0.418-6.627-0.715
								c-0.94-0.126-1.785-0.278-2.525-0.416c-0.742-0.129-1.378-0.255-1.894-0.379c-0.48-0.112-0.872-0.204-1.188-0.278
								c-0.27-0.068-0.411-0.11-0.408-0.123c0.003-0.013,0.149,0.003,0.425,0.046c0.319,0.055,0.716,0.123,1.201,0.206
								c0.519,0.101,1.158,0.204,1.901,0.313c0.742,0.117,1.587,0.25,2.526,0.357c1.873,0.261,4.118,0.452,6.612,0.629
								c2.497,0.141,5.246,0.227,8.133,0.207c2.886-0.036,5.632-0.174,8.126-0.357c2.491-0.217,4.733-0.442,6.603-0.72
								c0.938-0.119,1.782-0.257,2.524-0.379c0.743-0.114,1.381-0.221,1.9-0.322c0.485-0.084,0.882-0.153,1.201-0.209
								C151.754,291.932,151.9,291.916,151.904,291.929z"/>
						</g>
					</g>
				</g>
			</g>
		</g>
		<g>
			<g>
				<g>
					<path style="fill:#FF725E;" d="M128.727,201.613c0.244-0.244,2.518-3.634,8.621-2.707c7.318,1.112,9.855,4.624,9.855,4.624
						s-6.564,2.096-7.364,9.348c-0.811,7.349,0.004,19.06-0.78,24.068c-1.38,8.807-2.496,21.058-2.496,21.058L128.727,201.613z"/>
				</g>
			</g>
			<g>
				<g>
					<g>
						<path style="fill:#FF725E;" d="M143.199,278.473c0,0,13.909-0.283,19.066,1.885s2.761,17.813,0,19.604
							c-2.761,1.791-26.103,1.361-26.103,1.361s-3.236-10.409-2.765-10.88C133.869,289.971,143.199,278.473,143.199,278.473z"/>
					</g>
				</g>
				<g>
					<g>
						<path style="fill:#FF725E;" d="M137.538,211.075c0,0,0.564-13.243-17.329-14.23c-17.893-0.986-28.778-0.377-33.646,2.231
							c-8.777,4.703-9.785,14.802-10.114,17.039c-0.493,3.351,3.965,21.29,4.312,31.449c0.563,16.484,3.902,24.906,3.902,24.906
							s-2.634,13.556-1.507,19.051c1.127,5.495-0.563,20.429,18.597,22.119c19.161,1.691,30.009-3.395,34.517-7.896
							c4.508-4.502,9.921-8.131,13.114-14.403c2.186-4.294,3.793-9.823-6.21-18.276c-10.003-8.453-6.199-25.501-6.058-35.081
							C137.256,228.404,137.538,211.075,137.538,211.075z"/>
					</g>
				</g>
				<g style="opacity:0.3;">
					<g>
						<path d="M85.136,229.231c0,0.035,1.408,41.125,3.886,43.072c0.367,0.288,18.124-0.51,18.706-0.536
							c0.219-0.01-0.685-42.536-0.685-42.536H85.136z"/>
					</g>
				</g>
				<g style="opacity:0.3;">
					<g>
						<path d="M116.209,216.985c0,0-3.215,11.82-5.166,12.225c-1.759,0.366-20.64,0.097-28.478,0.018
							c-1.269-0.013-2.381-0.844-2.753-2.058c-0.985-3.21-2.806-9.095-2.953-9.242l-0.504-1.836c0,0,36.088-0.368,39.917-0.615
							l1.742-0.235L116.209,216.985z"/>
					</g>
				</g>
				<g>
					<g>
						<g>
							<path style="fill:#263238;" d="M130.856,199.744c-0.007-0.017-0.215,0.055-0.605,0.207c-0.441,0.179-1.003,0.408-1.698,0.69
								c-0.755,0.317-1.65,0.693-2.677,1.125c-0.264,0.091-0.52,0.285-0.794,0.436c-0.272,0.162-0.476,0.421-0.727,0.64
								c-0.206,0.256-0.411,0.53-0.605,0.817c-0.161,0.305-0.356,0.606-0.5,0.937c-0.611,1.314-1.027,2.834-1.464,4.448
								c-0.459,1.588-0.829,3.404-1.853,4.878c-0.26,0.351-0.592,0.668-0.977,0.822c-0.401,0.152-0.89,0.231-1.364,0.309
								c-0.963,0.138-1.959,0.236-2.977,0.31c-2.035,0.152-4.15,0.243-6.317,0.316c-8.675,0.267-16.538,0.269-22.228,0.304
								c-2.794,0.015-5.08,0.027-6.739,0.036c-0.75,0.012-1.357,0.021-1.833,0.029c-0.419,0.012-0.639,0.027-0.64,0.045
								c0,0.018,0.219,0.04,0.638,0.062c0.475,0.019,1.082,0.042,1.832,0.071c1.591,0.048,3.894,0.097,6.74,0.134
								c5.692,0.061,13.557,0.119,22.247-0.148c2.172-0.074,4.292-0.168,6.34-0.328c1.024-0.077,2.029-0.181,3.015-0.327
								c0.495-0.087,0.976-0.158,1.477-0.349c0.504-0.209,0.884-0.592,1.176-0.987c0.58-0.808,0.911-1.696,1.189-2.551
								c0.271-0.859,0.491-1.7,0.699-2.51c0.418-1.618,0.81-3.123,1.379-4.403c0.99-2.814,3.736-3.124,5.041-3.921
								c0.678-0.32,1.228-0.579,1.658-0.782C130.667,199.867,130.862,199.762,130.856,199.744z"/>
						</g>
					</g>
				</g>
				<g>
					<g>
						<g>
							<path style="fill:#263238;" d="M138.989,303.183c0.018-0.005-0.036-0.25-0.155-0.712c-0.117-0.462-0.307-1.139-0.569-2.007
								c-0.528-1.732-1.358-4.226-2.639-7.206c-0.639-1.491-1.392-3.1-2.246-4.803c-0.867-1.687-1.745-3.546-3.006-5.309
								c-1.237-1.767-2.72-3.475-4.292-5.194c-1.549-1.743-3.462-3.39-5.785-4.379c-1.151-0.508-2.347-0.841-3.511-1.147
								c-1.169-0.306-2.336-0.563-3.495-0.748c-1.159-0.187-2.312-0.298-3.446-0.319c-1.141-0.003-2.23,0.061-3.299,0.089
								c-4.261,0.153-8.106,0.29-11.357,0.407c-3.186,0.133-5.786,0.242-7.655,0.32c-0.861,0.047-1.551,0.085-2.08,0.114
								c-0.475,0.032-0.724,0.058-0.724,0.076c0.001,0.018,0.252,0.028,0.728,0.031c0.53-0.004,1.222-0.008,2.084-0.014
								c1.87-0.037,4.472-0.088,7.662-0.151c3.252-0.084,7.1-0.183,11.362-0.293c1.068-0.021,2.17-0.079,3.268-0.071
								c1.105,0.026,2.233,0.138,3.372,0.326c1.139,0.186,2.288,0.442,3.444,0.746c1.159,0.306,2.322,0.632,3.432,1.122
								c2.241,0.956,4.076,2.526,5.614,4.243c1.573,1.709,3.048,3.393,4.276,5.125c1.244,1.715,2.126,3.543,3.013,5.226
								c0.868,1.688,1.638,3.28,2.295,4.754c1.319,2.946,2.2,5.41,2.787,7.119c0.274,0.817,0.495,1.472,0.663,1.974
								C138.883,302.953,138.971,303.188,138.989,303.183z"/>
						</g>
					</g>
				</g>
				<g>
					<g>
						<g>
							<path style="fill:#263238;" d="M136.122,260.405c-0.004-0.018-0.205,0.007-0.585,0.07c-0.437,0.072-0.986,0.163-1.66,0.275
								c-1.431,0.187-3.564,0.577-6.105,0.111c-1.257-0.238-2.593-0.78-3.734-1.75c-1.139-0.973-2.049-2.352-2.661-3.931
								c-1.25-3.191-1.12-7.064-1.316-11.036c-0.338-7.945-0.644-15.133-0.87-20.425c-0.134-2.558-0.244-4.653-0.324-6.187
								c-0.047-0.682-0.085-1.238-0.115-1.681c-0.032-0.384-0.058-0.585-0.076-0.585c-0.018,0.001-0.028,0.203-0.031,0.589
								c0.004,0.444,0.009,1.001,0.015,1.685c0.039,1.536,0.091,3.634,0.155,6.194c0.185,5.294,0.436,12.484,0.714,20.431
								c0.199,3.954,0.068,7.871,1.391,11.194c0.648,1.636,1.614,3.074,2.832,4.089c1.222,1.014,2.642,1.56,3.95,1.783
								c2.644,0.431,4.78-0.028,6.211-0.277c0.719-0.147,1.273-0.277,1.646-0.374C135.932,260.483,136.126,260.423,136.122,260.405z
								"/>
						</g>
					</g>
				</g>
				<g>
					<g>
						<g>
							<path style="fill:#263238;" d="M137.08,304.953c0.017-0.006-0.048-0.238-0.189-0.675c-0.14-0.437-0.359-1.076-0.655-1.895
								c-0.592-1.637-1.487-3.994-2.744-6.845c-1.28-2.835-2.834-6.23-5.211-9.633c-2.381-3.35-5.701-6.759-10.183-8.629
								c-4.5-1.777-9.149-2.003-13.25-1.989c-4.099,0.122-7.798,0.232-10.928,0.326c-3.062,0.112-5.561,0.203-7.363,0.268
								c-0.825,0.041-1.489,0.074-2,0.1c-0.457,0.029-0.696,0.053-0.695,0.071c0.001,0.018,0.242,0.03,0.701,0.036
								c0.512,0,1.178,0,2.004,0c1.802-0.024,4.302-0.058,7.365-0.099c3.127-0.061,6.823-0.132,10.918-0.212
								c4.077,0.011,8.666,0.26,13.047,1.991c4.346,1.81,7.618,5.133,9.986,8.421c2.363,3.334,3.95,6.7,5.267,9.503
								c1.297,2.821,2.243,5.153,2.894,6.764c0.308,0.766,0.556,1.383,0.748,1.858C136.964,304.739,137.063,304.959,137.08,304.953z
								"/>
						</g>
					</g>
				</g>
				<g>
					<g>
						<g>
							<path style="fill:#263238;" d="M103.857,229.21c0-0.147-4.591-0.266-10.253-0.266c-5.664,0-10.254,0.119-10.254,0.266
								c0,0.147,4.59,0.266,10.254,0.266C99.266,229.476,103.857,229.357,103.857,229.21z"/>
						</g>
					</g>
				</g>
				<g>
					<g>
						<g>
							<path style="fill:#263238;" d="M91.164,265.872c0.02,0.021,0.39-0.294,1.06-0.894c0.715-0.655,1.671-1.531,2.852-2.612
								c2.469-2.313,5.866-5.496,9.828-9.207l0.25-0.234l-0.302-0.165c-2.765-1.513-5.789-3.167-8.95-4.897
								c-2.682-1.457-5.266-2.86-7.647-4.153l0.023,0.431c4.762-3.359,8.873-6.259,11.862-8.368c1.41-1.018,2.553-1.843,3.403-2.457
								c0.357-0.268,0.652-0.49,0.896-0.674c0.201-0.157,0.301-0.245,0.293-0.257c-0.008-0.012-0.125,0.051-0.342,0.185
								c-0.257,0.165-0.568,0.365-0.943,0.606c-0.871,0.584-2.043,1.368-3.487,2.336c-3.017,2.069-7.165,4.915-11.971,8.212
								l-0.339,0.233l0.363,0.198c2.377,1.3,4.957,2.71,7.635,4.175c3.166,1.718,6.196,3.363,8.966,4.866l-0.052-0.399
								c-3.908,3.768-7.26,6.999-9.695,9.346c-1.14,1.124-2.064,2.035-2.754,2.716C91.477,265.497,91.145,265.851,91.164,265.872z"
								/>
						</g>
					</g>
				</g>
				<g>
					<g>
						<g>
							<path style="fill:#263238;" d="M104.062,264.525c0.016-0.023-0.36-0.306-1.071-0.808c-0.774-0.535-1.806-1.249-3.079-2.13
								c-2.718-1.834-6.457-4.356-10.82-7.3l0.013,0.403c2.545-1.945,5.33-4.074,8.246-6.302c1.562-1.201,3.088-2.373,4.562-3.507
								c0.735-0.567,1.458-1.124,2.166-1.67l0.528-0.407l0.262-0.202l0.033-0.025c0.004-0.014,0,0.033,0.069-0.109
								c0.021-0.059,0.017-0.127,0.002-0.173c-0.016-0.047-0.013-0.029-0.021-0.047c-0.056-0.09-0.084-0.102-0.111-0.13
								c-0.055-0.046-0.102-0.082-0.15-0.115c-0.378-0.262-0.749-0.474-1.12-0.692c-2.969-1.697-5.69-3.114-7.973-4.317
								c-2.285-1.196-4.143-2.146-5.433-2.791c-0.605-0.296-1.098-0.537-1.492-0.73c-0.344-0.161-0.529-0.238-0.537-0.222
								c-0.008,0.016,0.16,0.125,0.487,0.317c0.382,0.216,0.86,0.487,1.445,0.818c1.329,0.73,3.141,1.725,5.352,2.94
								c2.256,1.244,4.964,2.699,7.902,4.408c0.362,0.216,0.739,0.438,1.077,0.675l0.11,0.085l0.016,0.015
								c-0.013,0.035,0.028-0.062,0.119-0.097c0.054-0.019,0.054-0.033,0.067-0.036c0.156,0.147-0.186-0.195-0.156-0.158
								l-0.008,0.006l-0.033,0.025l-0.262,0.2l-0.529,0.403c-0.709,0.541-1.432,1.092-2.168,1.654
								c-1.472,1.126-2.994,2.291-4.553,3.484c-2.897,2.23-5.665,4.36-8.194,6.306l-0.278,0.214l0.291,0.19
								c4.407,2.88,8.182,5.346,10.927,7.14c1.306,0.832,2.364,1.506,3.157,2.011C103.64,264.311,104.046,264.548,104.062,264.525z"
								/>
						</g>
					</g>
				</g>
				<g>
					<g>
						<rect x="103.715" y="241.963" style="fill:#263238;" width="1.714" height="0.921"/>
					</g>
				</g>
				<g>
					<g>
						<rect x="90.054" y="265.491" style="fill:#263238;" width="1.714" height="0.92"/>
					</g>
				</g>
				<g>
					<g>
						<rect x="103.715" y="252.533" style="fill:#263238;" width="1.714" height="0.921"/>
					</g>
				</g>
				<g>
					<g>
						<rect x="87.291" y="243.487" style="fill:#263238;" width="1.714" height="0.92"/>
					</g>
				</g>
				<g>
					<g>
						<rect x="88.437" y="254.242" style="fill:#263238;" width="1.714" height="0.921"/>
					</g>
				</g>
				<g>
					<g>
						<rect x="103.363" y="264.386" style="fill:#263238;" width="1.714" height="0.92"/>
					</g>
				</g>
				<g>
					<g>
						<rect x="87.276" y="232.791" style="fill:#263238;" width="1.714" height="0.92"/>
					</g>
				</g>
				<g>
					<g>
						<rect x="103.363" y="232.041" style="fill:#263238;" width="1.714" height="0.92"/>
					</g>
				</g>
				<g>
					<g>
						<path style="fill:#455A64;" d="M111.246,233.251c0,0-0.553,10.304,3.77,15.637l2.098,2.362l-1.907,1.743
							c0,0-3.942-2.969-4.959-6.275c-1.017-3.306-1.526-13.468-1.526-13.468H111.246z"/>
					</g>
				</g>
				<g>
					<g>
						<rect x="107.735" y="232.791" style="fill:#455A64;" width="3.168" height="45.669"/>
					</g>
				</g>
				<g>
					<g>
						<rect x="107.392" y="229.397" style="fill:#E0E0E0;" width="3.854" height="3.854"/>
					</g>
				</g>
				<g>
					<g>
						<path style="fill:#E0E0E0;" d="M106.917,280.038c0.092-0.138,0.475-3.362,0.475-3.316c0,0.046,3.854-0.139,3.854,0
							c0,0.139,1.106,3.317,1.106,3.317H106.917z"/>
					</g>
				</g>
				<g>
					<g>
						<polygon style="fill:#455A64;" points="85.708,278.403 88.874,278.3 85.361,232.717 82.195,232.821 						"/>
					</g>
				</g>
				<g>
					<g>
						
							<rect x="81.803" y="229.376" transform="matrix(-0.9995 0.0326 -0.0326 -0.9995 174.9646 459.7497)" style="fill:#E0E0E0;" width="3.854" height="3.854"/>
					</g>
				</g>
				<g>
					<g>
						<path style="fill:#E0E0E0;" d="M89.992,279.913c-0.097-0.135-0.585-3.345-0.583-3.299c0.002,0.046-3.857-0.013-3.852,0.125
							c0.005,0.138-0.997,3.351-0.997,3.351L89.992,279.913z"/>
					</g>
				</g>
				<g>
					<g>
						<g>
							<path style="fill:#263238;" d="M127.627,311.262c0.018,0,0.029-0.209,0.033-0.608c0.012-0.4-0.01-0.987-0.054-1.745
								c-0.1-1.512-0.383-3.704-1.123-6.322c-0.74-2.612-1.984-5.644-3.945-8.669c-0.984-1.505-2.138-3.023-3.565-4.387
								c-1.417-1.363-3.151-2.556-5.159-3.227c-2.016-0.664-4.096-0.732-6.044-0.673c-1.957,0.075-3.821,0.234-5.606,0.346
								c-3.549,0.249-6.754,0.475-9.472,0.666c-2.642,0.205-4.805,0.372-6.383,0.495c-0.706,0.066-1.28,0.119-1.734,0.161
								c-0.396,0.043-0.603,0.074-0.602,0.092c0.001,0.018,0.211,0.023,0.609,0.014c0.456-0.016,1.032-0.037,1.74-0.062
								c1.581-0.081,3.748-0.191,6.394-0.326c2.72-0.158,5.928-0.345,9.48-0.552c1.783-0.098,3.66-0.247,5.59-0.314
								c1.924-0.053,3.942,0.023,5.862,0.657c1.913,0.64,3.584,1.78,4.967,3.1c1.392,1.321,2.534,2.802,3.514,4.278
								c1.954,2.964,3.217,5.938,3.994,8.507c0.777,2.574,1.116,4.737,1.278,6.234C127.559,310.426,127.577,311.263,127.627,311.262
								z"/>
						</g>
					</g>
				</g>
				<g>
					<g>
						<rect x="83.862" y="209.765" style="fill:#263238;" width="14.25" height="3.045"/>
					</g>
				</g>
				<g>
					<g>
						<g>
							<path style="fill:#455A64;" d="M131.448,218.332h-1.516c-3.599,0-6.517,2.918-6.517,6.517l0,0
								c0,3.599,2.917,6.516,6.517,6.516h1.516c3.599,0,6.517-2.918,6.517-6.516l0,0
								C137.965,221.249,135.047,218.332,131.448,218.332z"/>
						</g>
					</g>
					<g>
						<g>
							<path style="fill:#263238;" d="M121.723,227.671c0.123,0.523-0.534,20.331,0.595,25.323c0.747,3.303,1.231,6.409,6.602,6.59
								c2.109,0.071,4.183-0.069,5.923-0.266c2.633-0.298,4.636-2.496,4.693-5.145c0.161-7.548,0.404-22.532-0.104-26.501H121.723z"
								/>
						</g>
					</g>
					<g>
						<g>
							<rect x="128.362" y="215.266" style="fill:#455A64;" width="5.171" height="3.952"/>
						</g>
					</g>
					<g>
						<g>
							<rect x="127.398" y="213.251" style="fill:#E0E0E0;" width="6.94" height="3.548"/>
						</g>
					</g>
					<g>
						<g>
							<g>
								<path style="fill:#455A64;" d="M121.723,227.671c0,0.037,0.444,0.072,1.248,0.104c0.914,0.023,2.053,0.051,3.403,0.085
									c2.874,0.048,6.844,0.078,11.228,0.078c0.667-0.001,1.325-0.001,1.948-0.002l-0.264-0.264
									c0.008,3.932,0.04,7.416,0.087,9.916c0.032,1.166,0.059,2.148,0.081,2.946c0.03,0.692,0.062,1.071,0.096,1.071
									c0.034,0,0.066-0.379,0.096-1.071c0.022-0.798,0.049-1.78,0.081-2.946c0.047-2.5,0.079-5.984,0.087-9.916l0.001-0.264
									l-0.265,0c-0.623-0.001-1.281-0.001-1.948-0.002c-4.385,0-8.354,0.03-11.228,0.078c-1.351,0.033-2.49,0.062-3.403,0.085
									C122.167,227.6,121.723,227.635,121.723,227.671z"/>
							</g>
						</g>
					</g>
					<g>
						<g>
							<g>
								<path style="fill:#263238;" d="M133.893,218.338c0,0.018,0.021,0.036,0.06,0.054v-0.107
									c-0.275-0.121-1.462-0.212-2.884-0.212c-1.627,0-2.945,0.119-2.945,0.266c0,0.147,1.318,0.266,2.945,0.266
									c1.422,0,2.609-0.091,2.884-0.212v-0.108C133.913,218.302,133.893,218.32,133.893,218.338z"/>
							</g>
						</g>
					</g>
					<g>
						<g>
							<g>
								<path style="fill:#263238;" d="M133.893,216.799c0,0.018,0.021,0.036,0.06,0.054v-0.107
									c-0.275-0.121-1.462-0.212-2.884-0.212c-1.627,0-2.945,0.119-2.945,0.266c0,0.147,1.318,0.266,2.945,0.266
									c1.422,0,2.609-0.091,2.884-0.212v-0.108C133.913,216.762,133.893,216.78,133.893,216.799z"/>
							</g>
						</g>
					</g>
				</g>
				<g>
					<g>
						<g>
							<path style="fill:#263238;" d="M121.856,293.681c-0.005-0.036-0.546-0.002-1.519,0.091c-1.071,0.105-2.455,0.241-4.119,0.404
								c-3.477,0.337-8.286,0.744-13.607,1.019c-5.324,0.271-10.149,0.358-13.643,0.378c-1.672,0.008-3.063,0.015-4.139,0.02
								c-0.978,0.007-1.519,0.028-1.52,0.064c-0.001,0.037,0.538,0.086,1.515,0.143c0.977,0.06,2.392,0.112,4.141,0.15
								c3.498,0.076,8.337,0.049,13.672-0.223c5.334-0.275,10.149-0.743,13.621-1.177c1.736-0.216,3.139-0.413,4.104-0.572
								C121.33,293.822,121.861,293.718,121.856,293.681z"/>
						</g>
					</g>
				</g>
				<g>
					<g>
						<path style="fill:#263238;" d="M117.28,295.16L117.28,295.16c-0.512,0.064-0.979-0.3-1.043-0.812l0,0
							c-0.064-0.512,0.3-0.98,0.813-1.043l0,0c0.512-0.064,0.979,0.3,1.043,0.812l0,0
							C118.156,294.629,117.792,295.097,117.28,295.16z"/>
					</g>
				</g>
				<g>
					<g>
						<g>
							<path style="fill:#263238;" d="M139.835,269.94c-0.075-0.052-0.629,0.721-1.693,1.801c-1.059,1.082-2.686,2.425-4.735,3.491
								c-2.053,1.058-4.09,1.611-5.585,1.852c-1.497,0.245-2.447,0.252-2.448,0.343c-0.004,0.056,0.953,0.184,2.499,0.03
								c1.541-0.149,3.662-0.661,5.779-1.752c2.111-1.098,3.754-2.535,4.765-3.707C139.435,270.825,139.882,269.969,139.835,269.94z
								"/>
						</g>
					</g>
				</g>
				<g style="opacity:0.3;">
					<g>
						<g>
							<path d="M126.245,277.575c4.194-2.364,8.993-4.83,13.187-7.193c-0.401,0.446-1.354,1.776-2.043,2.392
								c-2.983,2.666-6.882,4.288-10.876,4.525"/>
						</g>
					</g>
				</g>
				<g>
					<g>
						<g>
							<path style="fill:#263238;" d="M157.859,300.508c0.032,0.017,0.192-0.227,0.456-0.685c0.271-0.454,0.603-1.146,0.958-2.023
								c0.715-1.75,1.409-4.313,1.553-7.212c0.135-2.901-0.311-5.518-0.855-7.329c-0.269-0.907-0.534-1.627-0.76-2.105
								c-0.218-0.482-0.354-0.74-0.388-0.725c-0.086,0.035,0.345,1.116,0.784,2.927c0.443,1.807,0.818,4.37,0.687,7.207
								c-0.142,2.835-0.76,5.35-1.374,7.107C158.31,299.429,157.777,300.465,157.859,300.508z"/>
						</g>
					</g>
				</g>
				<g>
					<g>
						<g>
							<path style="fill:#263238;" d="M140.486,301.789c0.032,0.025,0.296-0.261,0.78-0.767c0.483-0.508,1.2-1.223,2.102-2.097
								c0.897-0.878,1.99-1.909,3.081-3.186c1.098-1.277,2.102-2.856,2.89-4.63c0.787-1.775,1.29-3.585,1.418-5.279
								c0.143-1.702-0.202-3.235-0.649-4.423c-0.454-1.195-1.006-2.079-1.442-2.639c-0.436-0.563-0.74-0.817-0.762-0.795
								c-0.081,0.054,1.048,1.2,1.849,3.56c0.388,1.17,0.677,2.638,0.515,4.258c-0.148,1.62-0.649,3.374-1.416,5.103
								c-0.769,1.731-1.732,3.272-2.78,4.531c-1.049,1.268-2.108,2.323-2.972,3.236c-0.869,0.909-1.551,1.672-1.99,2.225
								C140.67,301.438,140.46,301.769,140.486,301.789z"/>
						</g>
					</g>
				</g>
			</g>
			<g>
				<g>
					<g>
						<path style="fill:#263238;" d="M130.981,199.744c-0.053,0.078,1.138,0.783,2.54,2.473c0.706,0.835,1.464,1.9,2.199,3.147
							c0.726,1.256,1.495,2.653,1.963,4.247c0.955,3.2,1.309,6.246,1.513,8.43c0.19,2.194,0.168,3.56,0.251,3.563
							c0.036,0.001,0.082-0.339,0.123-0.959c0.029-0.62,0.053-1.519,0.002-2.628c-0.111-2.214-0.404-5.289-1.38-8.564
							c-0.486-1.65-1.295-3.089-2.052-4.342c-0.773-1.256-1.579-2.32-2.337-3.142c-0.754-0.826-1.457-1.406-1.973-1.757
							C131.317,199.855,130.994,199.721,130.981,199.744z"/>
					</g>
				</g>
			</g>
		</g>
		<g>
			<g>
				<g>
					<g>
						<path style="fill:#FFBF9D;" d="M194.173,247.935l-26.519,1.312l-3.14-9.982l-18.26,4.567l5.81,16.605
							c1.691,3.79,5.614,6.081,9.744,5.674c8.339-0.821,19.98-2.655,34.592-8.106L194.173,247.935z"/>
					</g>
				</g>
				<g>
					<g>
						<path style="fill:#FFBF9D;" d="M193.427,248.252c0,0,6.803-6.508,8.917-7.243c2.114-0.735,11.674-1.011,11.674-0.551
							c0,0.46,0.46,2.298-1.195,3.125l-1.747,0.659c0,0,1.839,1.179,0.184,2.742c0,0,1.655,2.482,0.276,3.677
							c0,0,1.103,1.011,0,2.666c-1.103,1.655-4.997,3.309-7.784,3.861c-2.787,0.551-7.354,0.838-7.354,0.838L193.427,248.252z"/>
					</g>
				</g>
			</g>
			<g>
				<g>
					<g>
						<g>
							<g>
								<path style="fill:#FFFFFF;" d="M155.218,209.967c-1.829-2.672-5.878-6.453-8.991-5.538
									c-1.385,0.407-2.864,1.202-4.077,2.828c-4.156,5.574-2.098,13.379-1.902,18.926c0.196,5.547,3.946,17.859,3.946,17.859
									l22.737-5.345c0,0-7.645-20.829-8.574-23.001C157.874,214.562,156.234,211.45,155.218,209.967z"/>
								<g>
									<path style="fill:#263238;" d="M155.218,209.967c0,0,0.135,0.148,0.35,0.465c0.216,0.317,0.521,0.796,0.896,1.433
										c0.715,1.28,1.89,3.143,2.757,5.742c1.946,5.155,4.688,12.416,7.932,21.008l0.094,0.249l-0.261,0.062
										c-6.765,1.598-14.421,3.407-22.502,5.316c-0.079,0.018-0.157,0.037-0.229,0.054l-0.239,0.056l-0.07-0.234
										c-1.067-3.583-2.011-7.103-2.779-10.544c-0.38-1.721-0.72-3.42-0.951-5.107c-0.249-1.7-0.22-3.36-0.398-4.954
										c-0.303-3.205-0.642-6.292-0.368-9.188c0.258-2.886,1.212-5.549,2.792-7.482c0.795-0.963,1.774-1.694,2.801-2.149
										c1-0.47,2.132-0.701,3.109-0.448c1.954,0.472,3.292,1.608,4.32,2.491C154.49,208.608,155.218,209.967,155.218,209.967
										c-0.022,0.015-0.234-0.298-0.696-0.845c-0.46-0.547-1.163-1.34-2.185-2.234c-1.03-0.85-2.383-1.94-4.244-2.357
										c-0.931-0.221-1.933-0.002-2.913,0.464c-0.979,0.447-1.902,1.153-2.654,2.081c-1.505,1.881-2.412,4.461-2.648,7.288
										c-0.25,2.84,0.098,5.891,0.416,9.105c0.187,1.616,0.165,3.282,0.414,4.931c0.233,1.663,0.575,3.352,0.956,5.063
										c0.771,3.421,1.718,6.937,2.78,10.503l-0.309-0.177c0.072-0.017,0.151-0.036,0.229-0.054
										c8.085-1.892,15.744-3.683,22.513-5.267l-0.167,0.31c-3.169-8.613-5.848-15.892-7.75-21.06
										c-0.831-2.618-1.95-4.468-2.627-5.778c-0.353-0.647-0.637-1.137-0.831-1.466
										C155.311,210.144,155.206,209.975,155.218,209.967z"/>
								</g>
							</g>
						</g>
					</g>
				</g>
			</g>
		</g>
	</g>
</g>
</svg>
